<?xml version="1.0" encoding="UTF-8"?>
<!DOCTYPE svg PUBLIC "-//W3C//DTD SVG 1.1//EN" "http://www.w3.org/Graphics/SVG/1.1/DTD/svg11.dtd">
<svg xmlns="http://www.w3.org/2000/svg" version="1.1" width="225px" height="225px" style="shape-rendering:geometricPrecision; text-rendering:geometricPrecision; image-rendering:optimizeQuality; fill-rule:evenodd; clip-rule:evenodd" xmlns:xlink="http://www.w3.org/1999/xlink">
<g><path style="opacity:1" fill="#f6f6f6" d="M -0.5,-0.5 C 74.5,-0.5 149.5,-0.5 224.5,-0.5C 224.5,74.5 224.5,149.5 224.5,224.5C 149.5,224.5 74.5,224.5 -0.5,224.5C -0.5,149.5 -0.5,74.5 -0.5,-0.5 Z"/></g>
<g><path style="opacity:1" fill="#346ae8" d="M 45.5,27.5 C 89.8346,27.3333 134.168,27.5 178.5,28C 188.342,29.8423 194.176,35.6757 196,45.5C 196.667,89.8333 196.667,134.167 196,178.5C 194.167,188.333 188.333,194.167 178.5,196C 134.167,196.667 89.8333,196.667 45.5,196C 35.6304,194.13 29.7971,188.297 28,178.5C 27.3333,134.167 27.3333,89.8333 28,45.5C 30.0141,35.654 35.8474,29.654 45.5,27.5 Z"/></g>
<g><path style="opacity:1" fill="#fafbfe" d="M 88.5,64.5 C 109.408,78.2079 129.908,92.5413 150,107.5C 151.653,112.891 150.153,117.058 145.5,120C 126.579,133.377 107.745,146.877 89,160.5C 88.3333,155.833 88.3333,151.167 89,146.5C 105.801,135.19 122.301,123.523 138.5,111.5C 121.533,100.016 105.033,88.0165 89,75.5C 88.5014,71.8484 88.3347,68.1817 88.5,64.5 Z"/></g>
<g><path style="opacity:1" fill="#f8f9fd" d="M 89.5,90.5 C 90.8734,90.3433 92.2068,90.51 93.5,91C 102.993,97.9135 112.659,104.58 122.5,111C 119.081,115.143 114.748,116.476 109.5,115C 102.667,110.167 95.8333,105.333 89,100.5C 88.2534,97.0764 88.42,93.7431 89.5,90.5 Z"/></g>
</svg>
