<?xml version="1.0" encoding="UTF-8"?>
<!DOCTYPE svg PUBLIC "-//W3C//DTD SVG 1.1//EN" "http://www.w3.org/Graphics/SVG/1.1/DTD/svg11.dtd">
<svg xmlns="http://www.w3.org/2000/svg" version="1.1" width="225px" height="225px" style="shape-rendering:geometricPrecision; text-rendering:geometricPrecision; image-rendering:optimizeQuality; fill-rule:evenodd; clip-rule:evenodd" xmlns:xlink="http://www.w3.org/1999/xlink">
<g><path style="opacity:1" fill="#fefefe" d="M -0.5,-0.5 C 74.5,-0.5 149.5,-0.5 224.5,-0.5C 224.5,74.5 224.5,149.5 224.5,224.5C 149.5,224.5 74.5,224.5 -0.5,224.5C -0.5,149.5 -0.5,74.5 -0.5,-0.5 Z"/></g>
<g><path style="opacity:1" fill="#7ee0c1" d="M 32.5,80.5 C 29.1667,80.5 25.8333,80.5 22.5,80.5C 22.8291,94.6766 22.4958,108.677 21.5,122.5C 21.5,108.167 21.5,93.8333 21.5,79.5C 25.3714,79.185 29.0381,79.5184 32.5,80.5 Z"/></g>
<g><path style="opacity:1" fill="#0cc98e" d="M 59.5,81.5 C 62.6248,80.5206 65.9581,80.1872 69.5,80.5C 69.5,97.1667 69.5,113.833 69.5,130.5C 66.1667,130.5 62.8333,130.5 59.5,130.5C 59.5,130.167 59.5,129.833 59.5,129.5C 62.5,129.5 65.5,129.5 68.5,129.5C 68.5,113.5 68.5,97.5 68.5,81.5C 65.5,81.5 62.5,81.5 59.5,81.5 Z"/></g>
<g><path style="opacity:1" fill="#0ad691" d="M 59.5,81.5 C 62.5,81.5 65.5,81.5 68.5,81.5C 68.5,97.5 68.5,113.5 68.5,129.5C 65.5,129.5 62.5,129.5 59.5,129.5C 59.5,113.5 59.5,97.5 59.5,81.5 Z"/></g>
<g><path style="opacity:1" fill="#30d598" d="M 76.5,80.5 C 84.8185,80.9869 86.4851,84.4869 81.5,91C 71.8383,91.1564 70.1717,87.6564 76.5,80.5 Z"/></g>
<g><path style="opacity:1" fill="#19d593" d="M 185.5,83.5 C 190.749,83.8587 195.749,84.8587 200.5,86.5C 189.683,99.1219 181.683,113.455 176.5,129.5C 172.217,130.492 167.884,130.826 163.5,130.5C 163.035,119.657 164.202,108.991 167,98.5C 167.831,94.9859 169.331,91.8192 171.5,89C 169.063,87.6253 166.397,87.1253 163.5,87.5C 163.337,84.314 164.337,81.6473 166.5,79.5C 172.54,82.1261 178.873,83.4594 185.5,83.5 Z"/></g>
<g><path style="opacity:1" fill="#d2faf0" d="M 185.5,83.5 C 190.833,83.5 196.167,83.5 201.5,83.5C 201.737,84.791 201.404,85.791 200.5,86.5C 195.749,84.8587 190.749,83.8587 185.5,83.5 Z"/></g>
<g><path style="opacity:1" fill="#19d593" d="M 32.5,80.5 C 32.3338,86.8421 32.5005,93.1754 33,99.5C 38.2065,95.1579 44.0398,94.3246 50.5,97C 57.0366,102.755 59.2033,109.922 57,118.5C 52.7013,130.068 44.868,133.568 33.5,129C 31.442,125.799 30.442,126.299 30.5,130.5C 27.5,130.5 24.5,130.5 21.5,130.5C 21.5,127.833 21.5,125.167 21.5,122.5C 22.4958,108.677 22.8291,94.6766 22.5,80.5C 25.8333,80.5 29.1667,80.5 32.5,80.5 Z"/></g>
<g><path style="opacity:1" fill="#99ecd2" d="M 83.5,130.5 C 83.5,119.167 83.5,107.833 83.5,96.5C 80.1667,96.5 76.8333,96.5 73.5,96.5C 73.5,107.833 73.5,119.167 73.5,130.5C 72.5051,119.012 72.1717,107.345 72.5,95.5C 76.5,95.5 80.5,95.5 84.5,95.5C 84.8283,107.345 84.4949,119.012 83.5,130.5 Z"/></g>
<g><path style="opacity:1" fill="#0bd491" d="M 83.5,130.5 C 80.1667,130.5 76.8333,130.5 73.5,130.5C 73.5,119.167 73.5,107.833 73.5,96.5C 76.8333,96.5 80.1667,96.5 83.5,96.5C 83.5,107.833 83.5,119.167 83.5,130.5 Z"/></g>
<g><path style="opacity:1" fill="#1cd593" d="M 147.5,96.5 C 150.167,96.5 152.833,96.5 155.5,96.5C 155.5,108.5 155.5,120.5 155.5,132.5C 159.063,134.317 163.063,135.483 167.5,136C 169.5,137.333 171.5,138.667 173.5,140C 175.648,142.075 175.982,144.408 174.5,147C 168.92,148.517 163.253,148.851 157.5,148C 154.421,146.752 151.754,144.919 149.5,142.5C 141.905,145.866 134.238,146.2 126.5,143.5C 125.89,142.609 125.557,141.609 125.5,140.5C 125.565,138.304 126.232,136.304 127.5,134.5C 131.974,136.468 136.64,136.968 141.5,136C 145.126,133.749 146.293,130.582 145,126.5C 130.789,133.18 122.956,128.514 121.5,112.5C 123.945,97.1137 132.278,92.4471 146.5,98.5C 147.298,98.0431 147.631,97.3764 147.5,96.5 Z"/></g>
<g><path style="opacity:1" fill="#86e4c7" d="M 69.5,80.5 C 65.9581,80.1872 62.6248,80.5206 59.5,81.5C 59.5,97.5 59.5,113.5 59.5,129.5C 59.5,129.833 59.5,130.167 59.5,130.5C 58.5034,113.675 58.1701,96.6749 58.5,79.5C 62.3714,79.185 66.0381,79.5184 69.5,80.5 Z"/></g>
<g><path style="opacity:1" fill="#45d3a1" d="M 96.5,96.5 C 93.8806,96.2317 91.3806,96.565 89,97.5C 88.5002,108.161 88.3335,118.828 88.5,129.5C 91.5,129.5 94.5,129.5 97.5,129.5C 97.175,121.981 97.5084,114.648 98.5,107.5C 98.5,115.167 98.5,122.833 98.5,130.5C 94.8333,130.5 91.1667,130.5 87.5,130.5C 87.5,118.833 87.5,107.167 87.5,95.5C 90.7131,95.19 93.7131,95.5233 96.5,96.5 Z"/></g>
<g><path style="opacity:1" fill="#f6fefd" d="M 36.5,103.5 C 41.4226,102.871 44.5893,104.871 46,109.5C 48.1209,118.866 44.6209,122.866 35.5,121.5C 31.2069,115.133 31.5403,109.133 36.5,103.5 Z"/></g>
<g><path style="opacity:1" fill="#f5fdfc" d="M 136.5,103.5 C 139.97,102.875 142.804,103.875 145,106.5C 145.667,110.167 145.667,113.833 145,117.5C 140.642,124.26 136.642,123.927 133,116.5C 131.845,111.474 133.012,107.141 136.5,103.5 Z"/></g>
<g><path style="opacity:1" fill="#11d592" d="M 119.5,105.5 C 119.5,113.5 119.5,121.5 119.5,129.5C 116.5,129.5 113.5,129.5 110.5,129.5C 110.823,122.978 110.49,116.645 109.5,110.5C 109.056,104.847 106.056,103.014 100.5,105C 99.9341,105.995 99.2674,106.828 98.5,107.5C 97.5084,114.648 97.175,121.981 97.5,129.5C 94.5,129.5 91.5,129.5 88.5,129.5C 88.3335,118.828 88.5002,108.161 89,97.5C 91.3806,96.565 93.8806,96.2317 96.5,96.5C 96.281,97.675 96.6143,98.675 97.5,99.5C 104.648,93.899 111.481,94.2323 118,100.5C 118.608,102.154 119.108,103.821 119.5,105.5 Z"/></g>
<g><path style="opacity:1" fill="#46d1a2" d="M 147.5,96.5 C 150.287,95.5233 153.287,95.19 156.5,95.5C 156.829,108.011 156.495,120.345 155.5,132.5C 155.5,120.5 155.5,108.5 155.5,96.5C 152.833,96.5 150.167,96.5 147.5,96.5 Z"/></g>
<g><path style="opacity:1" fill="#42d2a0" d="M 119.5,105.5 C 120.493,113.65 120.826,121.983 120.5,130.5C 116.833,130.5 113.167,130.5 109.5,130.5C 109.5,123.833 109.5,117.167 109.5,110.5C 110.49,116.645 110.823,122.978 110.5,129.5C 113.5,129.5 116.5,129.5 119.5,129.5C 119.5,121.5 119.5,113.5 119.5,105.5 Z"/></g>
<g><path style="opacity:1" fill="#89e1c5" d="M 125.5,140.5 C 125.557,141.609 125.89,142.609 126.5,143.5C 124.448,142.947 124.115,141.947 125.5,140.5 Z"/></g>
</svg>
