<?xml version="1.0" encoding="UTF-8"?>
<!DOCTYPE svg PUBLIC "-//W3C//DTD SVG 1.1//EN" "http://www.w3.org/Graphics/SVG/1.1/DTD/svg11.dtd">
<svg xmlns="http://www.w3.org/2000/svg" version="1.1" width="224px" height="225px" style="shape-rendering:geometricPrecision; text-rendering:geometricPrecision; image-rendering:optimizeQuality; fill-rule:evenodd; clip-rule:evenodd" xmlns:xlink="http://www.w3.org/1999/xlink">
<g><path style="opacity:1" fill="#136eff" d="M -0.5,-0.5 C 73.8333,-0.5 148.167,-0.5 222.5,-0.5C 222.5,-0.166667 222.5,0.166667 222.5,0.5C 148.5,0.5 74.5,0.5 0.5,0.5C 0.5,74.5 0.5,148.5 0.5,222.5C 0.166667,222.5 -0.166667,222.5 -0.5,222.5C -0.5,148.167 -0.5,73.8333 -0.5,-0.5 Z"/></g>
<g><path style="opacity:1" fill="#0165ff" d="M 222.5,0.5 C 222.5,74.5 222.5,148.5 222.5,222.5C 148.5,222.5 74.5,222.5 0.5,222.5C 0.5,148.5 0.5,74.5 0.5,0.5C 74.5,0.5 148.5,0.5 222.5,0.5 Z"/></g>
<g><path style="opacity:1" fill="#fdfdff" d="M 101.5,42.5 C 107.509,42.3338 113.509,42.5005 119.5,43C 126.354,44.5161 131.521,48.3494 135,54.5C 136.479,62.6523 138.479,70.6523 141,78.5C 146.449,84.5409 153.282,87.0409 161.5,86C 176.683,90.5188 183.183,100.685 181,116.5C 180.327,125.689 175.827,132.189 167.5,136C 161.66,137.895 155.66,138.895 149.5,139C 139.764,143.767 135.597,151.6 137,162.5C 135.042,171.793 129.542,177.96 120.5,181C 95.8116,185.067 83.645,174.567 84,149.5C 79.3462,140.433 71.8462,136.6 61.5,138C 51,135.5 44.5,129 42,118.5C 38.9778,105.204 43.1445,95.037 54.5,88C 62.6523,86.5212 70.6523,84.5212 78.5,82C 83.627,76.9561 85.7937,70.7895 85,63.5C 86.994,53.6802 92.494,46.6802 101.5,42.5 Z"/></g>
<g><path style="opacity:1" fill="#0c66ff" d="M 86.5,85.5 C 103.411,85.1749 120.244,85.5082 137,86.5C 137.825,103.741 137.658,120.907 136.5,138C 119.833,138.667 103.167,138.667 86.5,138C 86,137.5 85.5,137 85,136.5C 84.3333,120.167 84.3333,103.833 85,87.5C 85.7172,86.9558 86.2172,86.2891 86.5,85.5 Z"/></g>
<g><path style="opacity:1" fill="#a7b9ff" d="M 222.5,-0.5 C 222.833,-0.5 223.167,-0.5 223.5,-0.5C 223.5,74.5 223.5,149.5 223.5,224.5C 148.833,224.5 74.1667,224.5 -0.5,224.5C -0.5,223.833 -0.5,223.167 -0.5,222.5C -0.166667,222.5 0.166667,222.5 0.5,222.5C 74.5,222.5 148.5,222.5 222.5,222.5C 222.5,148.5 222.5,74.5 222.5,0.5C 222.5,0.166667 222.5,-0.166667 222.5,-0.5 Z"/></g>
</svg>
