<?xml version="1.0" encoding="UTF-8"?>
<!DOCTYPE svg PUBLIC "-//W3C//DTD SVG 1.1//EN" "http://www.w3.org/Graphics/SVG/1.1/DTD/svg11.dtd">
<svg xmlns="http://www.w3.org/2000/svg" version="1.1" width="225px" height="225px" style="shape-rendering:geometricPrecision; text-rendering:geometricPrecision; image-rendering:optimizeQuality; fill-rule:evenodd; clip-rule:evenodd" xmlns:xlink="http://www.w3.org/1999/xlink">
<g><path style="opacity:1" fill="#fcfbfd" d="M -0.5,-0.5 C 12.1667,-0.5 24.8333,-0.5 37.5,-0.5C 17.4004,3.59833 4.73376,15.5983 -0.5,35.5C -0.5,23.5 -0.5,11.5 -0.5,-0.5 Z"/></g>
<g><path style="opacity:1" fill="#6643b2" d="M 37.5,-0.5 C 86.8333,-0.5 136.167,-0.5 185.5,-0.5C 207.065,3.39863 220.065,16.0653 224.5,37.5C 224.5,61.1667 224.5,84.8333 224.5,108.5C 192.566,123.091 160.566,137.591 128.5,152C 114.924,157.949 101.424,157.782 88,151.5C 79.5192,154.491 71.3525,158.158 63.5,162.5C 79.5687,177.44 98.5687,182.94 120.5,179C 127.023,177.603 133.357,175.603 139.5,173C 167.859,160.152 196.193,147.319 224.5,134.5C 224.5,151.5 224.5,168.5 224.5,185.5C 220.5,207.5 207.5,220.5 185.5,224.5C 135.5,224.5 85.5,224.5 35.5,224.5C 15.1633,219.164 3.16326,206.164 -0.5,185.5C -0.5,181.5 -0.5,177.5 -0.5,173.5C 58.5053,147.248 117.339,120.581 176,93.5C 174.292,84.4073 170.625,76.074 165,68.5C 142.827,43.1115 115.661,35.6115 83.5,46C 56.0054,58.6749 41.3387,80.1749 39.5,110.5C 48.0314,107.57 56.3647,104.07 64.5,100C 75.2504,72.7928 94.917,62.1261 123.5,68C 131.38,70.7681 138.046,75.2681 143.5,81.5C 95.7244,103.722 47.7244,125.389 -0.5,146.5C -0.5,109.5 -0.5,72.5 -0.5,35.5C 4.73376,15.5983 17.4004,3.59833 37.5,-0.5 Z"/></g>
<g><path style="opacity:1" fill="#fbfafd" d="M 185.5,-0.5 C 198.5,-0.5 211.5,-0.5 224.5,-0.5C 224.5,12.1667 224.5,24.8333 224.5,37.5C 220.065,16.0653 207.065,3.39863 185.5,-0.5 Z"/></g>
<g><path style="opacity:1" fill="#fdfcfe" d="M -0.5,173.5 C -0.5,164.5 -0.5,155.5 -0.5,146.5C 47.7244,125.389 95.7244,103.722 143.5,81.5C 138.046,75.2681 131.38,70.7681 123.5,68C 94.917,62.1261 75.2504,72.7928 64.5,100C 56.3647,104.07 48.0314,107.57 39.5,110.5C 41.3387,80.1749 56.0054,58.6749 83.5,46C 115.661,35.6115 142.827,43.1115 165,68.5C 170.625,76.074 174.292,84.4073 176,93.5C 117.339,120.581 58.5053,147.248 -0.5,173.5 Z"/></g>
<g><path style="opacity:1" fill="#fdfcfd" d="M 224.5,108.5 C 224.5,117.167 224.5,125.833 224.5,134.5C 196.193,147.319 167.859,160.152 139.5,173C 133.357,175.603 127.023,177.603 120.5,179C 98.5687,182.94 79.5687,177.44 63.5,162.5C 71.3525,158.158 79.5192,154.491 88,151.5C 101.424,157.782 114.924,157.949 128.5,152C 160.566,137.591 192.566,123.091 224.5,108.5 Z"/></g>
<g><path style="opacity:1" fill="#fbfbfd" d="M -0.5,185.5 C 3.16326,206.164 15.1633,219.164 35.5,224.5C 23.5,224.5 11.5,224.5 -0.5,224.5C -0.5,211.5 -0.5,198.5 -0.5,185.5 Z"/></g>
<g><path style="opacity:1" fill="#faf9fc" d="M 224.5,185.5 C 224.5,198.5 224.5,211.5 224.5,224.5C 211.5,224.5 198.5,224.5 185.5,224.5C 207.5,220.5 220.5,207.5 224.5,185.5 Z"/></g>
</svg>
