<?xml version="1.0" encoding="UTF-8"?>
<!DOCTYPE svg PUBLIC "-//W3C//DTD SVG 1.1//EN" "http://www.w3.org/Graphics/SVG/1.1/DTD/svg11.dtd">
<svg xmlns="http://www.w3.org/2000/svg" version="1.1" width="225px" height="225px" style="shape-rendering:geometricPrecision; text-rendering:geometricPrecision; image-rendering:optimizeQuality; fill-rule:evenodd; clip-rule:evenodd" xmlns:xlink="http://www.w3.org/1999/xlink">
<g><path style="opacity:1" fill="#f1f2f2" d="M -0.5,-0.5 C 74.5,-0.5 149.5,-0.5 224.5,-0.5C 224.5,74.5 224.5,149.5 224.5,224.5C 149.5,224.5 74.5,224.5 -0.5,224.5C -0.5,149.5 -0.5,74.5 -0.5,-0.5 Z"/></g>
<g><path style="opacity:1" fill="#00a0e7" d="M 79.5,60.5 C 85.8333,60.5 92.1667,60.5 98.5,60.5C 103.521,61.2354 108.687,61.9021 114,62.5C 114.772,62.3552 115.439,62.0219 116,61.5C 116.494,63.1341 116.66,64.8008 116.5,66.5C 114.585,66.2155 112.919,66.5489 111.5,67.5C 100.495,67.6665 89.495,67.4998 78.5,67C 81.0026,65.4506 81.0026,63.7839 78.5,62C 79.056,61.6174 79.3893,61.1174 79.5,60.5 Z"/></g>
<g><path style="opacity:1" fill="#0c9bef" d="M 98.5,60.5 C 114.17,60.3334 129.837,60.5001 145.5,61C 153.307,63.4739 158.474,68.6405 161,76.5C 161.667,83.1667 161.667,89.8333 161,96.5C 158.925,98.6483 156.592,98.9817 154,97.5C 153.667,90.8333 153.333,84.1667 153,77.5C 151.256,72.9213 148.09,69.9213 143.5,68.5C 133.013,67.5056 122.346,67.1722 111.5,67.5C 112.919,66.5489 114.585,66.2155 116.5,66.5C 116.66,64.8008 116.494,63.1341 116,61.5C 115.439,62.0219 114.772,62.3552 114,62.5C 108.687,61.9021 103.521,61.2354 98.5,60.5 Z"/></g>
<g><path style="opacity:1" fill="#43b2dc" d="M 79.5,60.5 C 79.3893,61.1174 79.056,61.6174 78.5,62C 81.0026,63.7839 81.0026,65.4506 78.5,67C 89.495,67.4998 100.495,67.6665 111.5,67.5C 122.346,67.1722 133.013,67.5056 143.5,68.5C 121.164,68.3334 98.8308,68.5 76.5,69C 74.6769,69.9973 73.0103,71.1639 71.5,72.5C 69.4284,70.6505 68.0951,68.3171 67.5,65.5C 70.7906,62.1896 74.7906,60.523 79.5,60.5 Z"/></g>
<g><path style="opacity:1" fill="#0eb4c7" d="M 67.5,65.5 C 68.0951,68.3171 69.4284,70.6505 71.5,72.5C 69.6878,74.4605 68.6878,76.7939 68.5,79.5C 67.6745,83.9819 67.1745,88.6486 67,93.5C 66.5161,90.2238 64.8494,87.2238 62,84.5C 61.8019,86.3817 61.3019,88.0484 60.5,89.5C 58.6226,80.0504 60.9559,72.0504 67.5,65.5 Z"/></g>
<g><path style="opacity:1" fill="#32bfbf" d="M 68.5,79.5 C 68.5,88.5 68.5,97.5 68.5,106.5C 66.1953,102.207 63.5286,98.2071 60.5,94.5C 60.5,92.8333 60.5,91.1667 60.5,89.5C 61.3019,88.0484 61.8019,86.3817 62,84.5C 64.8494,87.2238 66.5161,90.2238 67,93.5C 67.1745,88.6486 67.6745,83.9819 68.5,79.5 Z"/></g>
<g><path style="opacity:1" fill="#06c0ae" d="M 60.5,94.5 C 63.5286,98.2071 66.1953,102.207 68.5,106.5C 72.0381,108.105 74.3714,110.771 75.5,114.5C 71.1667,114.5 66.8333,114.5 62.5,114.5C 61.8826,114.389 61.3826,114.056 61,113.5C 60.5005,107.175 60.3338,100.842 60.5,94.5 Z"/></g>
<g><path style="opacity:1" fill="#1ba4e1" d="M 158.5,107.5 C 149.108,107.11 142.442,107.443 138.5,108.5C 138.5,109.5 138.5,110.5 138.5,111.5C 137.127,111.343 135.793,111.51 134.5,112C 138.833,112.333 143.167,112.667 147.5,113C 144.635,113.183 141.969,113.683 139.5,114.5C 134.821,114.666 130.155,114.499 125.5,114C 124.915,112.698 124.249,111.531 123.5,110.5C 122.342,106.194 120.509,102.194 118,98.5C 117.187,100.436 116.687,102.436 116.5,104.5C 114.61,104.11 113.11,105.11 112,107.5C 111.304,104.522 110.804,101.522 110.5,98.5C 111.01,94.1157 111.843,89.7823 113,85.5C 114.845,81.2052 117.512,80.5385 121,83.5C 123.891,90.9498 127.058,98.2831 130.5,105.5C 139.991,106.167 149.325,106.833 158.5,107.5 Z"/></g>
<g><path style="opacity:1" fill="#18abd7" d="M 110.5,98.5 C 110.804,101.522 111.304,104.522 112,107.5C 113.11,105.11 114.61,104.11 116.5,104.5C 115.752,107.905 114.752,111.238 113.5,114.5C 112.778,114.918 112.278,115.584 112,116.5C 108.903,113.14 107.736,109.14 108.5,104.5C 108.259,102.102 108.926,100.102 110.5,98.5 Z"/></g>
<g><path style="opacity:1" fill="#019eea" d="M 158.5,107.5 C 159.833,107.5 160.5,108.167 160.5,109.5C 160.87,117.903 160.37,126.236 159,134.5C 158.333,111.833 157.667,111.833 157,134.5C 156.667,130.5 156.333,126.5 156,122.5C 155.667,124.833 155.333,127.167 155,129.5C 154.826,124.649 154.326,119.982 153.5,115.5C 149.03,114.514 144.363,114.181 139.5,114.5C 141.969,113.683 144.635,113.183 147.5,113C 143.167,112.667 138.833,112.333 134.5,112C 135.793,111.51 137.127,111.343 138.5,111.5C 138.5,110.5 138.5,109.5 138.5,108.5C 142.442,107.443 149.108,107.11 158.5,107.5 Z"/></g>
<g><path style="opacity:1" fill="#d0f5f6" d="M 62.5,114.5 C 66.8333,114.5 71.1667,114.5 75.5,114.5C 81.2709,113.887 86.6042,114.554 91.5,116.5C 81.7345,115.857 72.0678,115.19 62.5,114.5 Z"/></g>
<g><path style="opacity:1" fill="#daf3f8" d="M 123.5,110.5 C 124.249,111.531 124.915,112.698 125.5,114C 130.155,114.499 134.821,114.666 139.5,114.5C 144.363,114.181 149.03,114.514 153.5,115.5C 153.5,124.5 153.5,133.5 153.5,142.5C 153.167,142.5 152.833,142.5 152.5,142.5C 152.5,133.5 152.5,124.5 152.5,115.5C 142.833,115.5 133.167,115.5 123.5,115.5C 123.5,113.833 123.5,112.167 123.5,110.5 Z"/></g>
<g><path style="opacity:1" fill="#1fb2cb" d="M 108.5,104.5 C 107.736,109.14 108.903,113.14 112,116.5C 112.278,115.584 112.778,114.918 113.5,114.5C 112.78,119.993 111.446,125.326 109.5,130.5C 105.727,128.715 104.061,125.715 104.5,121.5C 105.075,115.54 106.408,109.874 108.5,104.5 Z"/></g>
<g><path style="opacity:1" fill="#2bd29c" d="M 68.5,142.5 C 67.1994,140.409 65.6994,138.409 64,136.5C 63.1841,135.177 62.0174,134.511 60.5,134.5C 60.3347,130.818 60.5014,127.152 61,123.5C 63.5918,122.018 65.9251,122.352 68,124.5C 68.4995,130.491 68.6662,136.491 68.5,142.5 Z"/></g>
<g><path style="opacity:1" fill="#17b9bc" d="M 108.5,132.5 C 108.326,134.861 107.993,137.194 107.5,139.5C 105.208,139.756 103.041,139.423 101,138.5C 98.544,133.259 96.3774,127.925 94.5,122.5C 95.7498,122.423 96.5831,121.756 97,120.5C 97.7203,122.112 97.5536,123.612 96.5,125C 98.1944,126.728 99.3611,126.228 100,123.5C 101.135,128.082 103.302,132.082 106.5,135.5C 107.176,134.398 107.842,133.398 108.5,132.5 Z"/></g>
<g><path style="opacity:1" fill="#19b6c4" d="M 68.5,106.5 C 77.5062,106.334 86.5062,106.5 95.5,107C 98.1821,112.028 100.682,117.195 103,122.5C 103.383,121.944 103.883,121.611 104.5,121.5C 104.061,125.715 105.727,128.715 109.5,130.5C 109.672,131.492 109.338,132.158 108.5,132.5C 107.842,133.398 107.176,134.398 106.5,135.5C 103.302,132.082 101.135,128.082 100,123.5C 99.3611,126.228 98.1944,126.728 96.5,125C 97.5536,123.612 97.7203,122.112 97,120.5C 96.5831,121.756 95.7498,122.423 94.5,122.5C 93.5139,120.574 92.5139,118.574 91.5,116.5C 86.6042,114.554 81.2709,113.887 75.5,114.5C 74.3714,110.771 72.0381,108.105 68.5,106.5 Z"/></g>
<g><path style="opacity:1" fill="#18a3de" d="M 160.5,109.5 C 161.659,120.659 161.826,131.992 161,143.5C 160.392,145.154 159.892,146.821 159.5,148.5C 158.466,147.313 157.133,146.48 155.5,146C 154.177,145.184 153.511,144.017 153.5,142.5C 153.5,133.5 153.5,124.5 153.5,115.5C 154.326,119.982 154.826,124.649 155,129.5C 155.333,127.167 155.667,124.833 156,122.5C 156.333,126.5 156.667,130.5 157,134.5C 157.667,111.833 158.333,111.833 159,134.5C 160.37,126.236 160.87,117.903 160.5,109.5 Z"/></g>
<g><path style="opacity:1" fill="#17aad7" d="M 152.5,142.5 C 152.833,142.5 153.167,142.5 153.5,142.5C 153.511,144.017 154.177,145.184 155.5,146C 157.133,146.48 158.466,147.313 159.5,148.5C 157.883,151.784 155.55,154.451 152.5,156.5C 150.983,156.489 149.816,155.823 149,154.5C 148.667,154.833 148.333,155.167 148,155.5C 146.812,154.437 146.312,153.103 146.5,151.5C 150.103,149.565 152.103,146.565 152.5,142.5 Z"/></g>
<g><path style="opacity:1" fill="#10da86" d="M 60.5,134.5 C 62.0174,134.511 63.1841,135.177 64,136.5C 65.6994,138.409 67.1994,140.409 68.5,142.5C 69.8333,148.5 73.5,152.167 79.5,153.5C 80.3984,154.158 81.3984,154.824 82.5,155.5C 82.2907,156.086 81.9574,156.586 81.5,157C 83.4308,157.902 85.0975,159.069 86.5,160.5C 83.1667,160.5 79.8333,160.5 76.5,160.5C 64.2817,156.245 58.9484,147.578 60.5,134.5 Z"/></g>
<g><path style="opacity:1" fill="#00d192" d="M 79.5,153.5 C 81.8333,153.5 84.1667,153.5 86.5,153.5C 90.6966,155.481 94.0299,157.814 96.5,160.5C 93.1667,160.5 89.8333,160.5 86.5,160.5C 85.0975,159.069 83.4308,157.902 81.5,157C 81.9574,156.586 82.2907,156.086 82.5,155.5C 81.3984,154.824 80.3984,154.158 79.5,153.5 Z"/></g>
<g><path style="opacity:1" fill="#00ca9f" d="M 86.5,153.5 C 89.1667,153.5 91.8333,153.5 94.5,153.5C 97.6754,154.429 101.009,155.262 104.5,156C 101.093,157.127 101.426,158.46 105.5,160C 102.518,160.498 99.5184,160.665 96.5,160.5C 94.0299,157.814 90.6966,155.481 86.5,153.5 Z"/></g>
<g><path style="opacity:1" fill="#2cc4b1" d="M 94.5,153.5 C 100.833,153.5 107.167,153.5 113.5,153.5C 114.058,154.79 115.058,155.623 116.5,156C 115.5,156.333 114.5,156.667 113.5,157C 115.952,157.29 118.285,157.956 120.5,159C 119.833,159.333 119.167,159.667 118.5,160C 120.382,160.198 122.048,160.698 123.5,161.5C 107.658,161.83 91.9911,161.496 76.5,160.5C 79.8333,160.5 83.1667,160.5 86.5,160.5C 89.8333,160.5 93.1667,160.5 96.5,160.5C 99.5184,160.665 102.518,160.498 105.5,160C 101.426,158.46 101.093,157.127 104.5,156C 101.009,155.262 97.6754,154.429 94.5,153.5 Z"/></g>
<g><path style="opacity:1" fill="#16b8bc" d="M 113.5,153.5 C 118.833,153.5 124.167,153.5 129.5,153.5C 127.369,154.314 125.036,154.814 122.5,155C 127.833,155.333 133.167,155.667 138.5,156C 135.774,156.182 133.107,156.682 130.5,157.5C 131.55,159.102 130.883,159.935 128.5,160C 133.155,160.499 137.821,160.666 142.5,160.5C 136.355,161.49 130.022,161.823 123.5,161.5C 122.048,160.698 120.382,160.198 118.5,160C 119.167,159.667 119.833,159.333 120.5,159C 118.285,157.956 115.952,157.29 113.5,157C 114.5,156.667 115.5,156.333 116.5,156C 115.058,155.623 114.058,154.79 113.5,153.5 Z"/></g>
<g><path style="opacity:1" fill="#0db1c9" d="M 146.5,151.5 C 146.312,153.103 146.812,154.437 148,155.5C 148.333,155.167 148.667,154.833 149,154.5C 149.816,155.823 150.983,156.489 152.5,156.5C 149.808,159.181 146.475,160.514 142.5,160.5C 137.821,160.666 133.155,160.499 128.5,160C 130.883,159.935 131.55,159.102 130.5,157.5C 133.107,156.682 135.774,156.182 138.5,156C 133.167,155.667 127.833,155.333 122.5,155C 125.036,154.814 127.369,154.314 129.5,153.5C 135.359,153.949 141.025,153.283 146.5,151.5 Z"/></g>
</svg>
