<?xml version="1.0" encoding="UTF-8"?>
<!DOCTYPE svg PUBLIC "-//W3C//DTD SVG 1.1//EN" "http://www.w3.org/Graphics/SVG/1.1/DTD/svg11.dtd">
<svg xmlns="http://www.w3.org/2000/svg" version="1.1" width="225px" height="225px" style="shape-rendering:geometricPrecision; text-rendering:geometricPrecision; image-rendering:optimizeQuality; fill-rule:evenodd; clip-rule:evenodd" xmlns:xlink="http://www.w3.org/1999/xlink">
<g><path style="opacity:1" fill="#f7f5f5" d="M -0.5,-0.5 C 33.8333,-0.5 68.1667,-0.5 102.5,-0.5C 56.3882,5.75662 24.2215,30.4233 6,73.5C 3.17561,83.1584 1.00895,92.8251 -0.5,102.5C -0.5,68.1667 -0.5,33.8333 -0.5,-0.5 Z"/></g>
<g><path style="opacity:1" fill="#f37639" d="M 102.5,-0.5 C 108.167,-0.5 113.833,-0.5 119.5,-0.5C 171.202,5.68688 205.036,33.6869 221,83.5C 222.002,89.6717 223.168,95.6717 224.5,101.5C 224.5,107.833 224.5,114.167 224.5,120.5C 217.861,171.655 189.861,205.155 140.5,221C 133.705,222.263 127.038,223.429 120.5,224.5C 114.167,224.5 107.833,224.5 101.5,224.5C 55.4976,217.676 23.6643,192.676 6,149.5C 3.06627,139.524 0.8996,129.524 -0.5,119.5C -0.5,113.833 -0.5,108.167 -0.5,102.5C 1.00895,92.8251 3.17561,83.1584 6,73.5C 24.2215,30.4233 56.3882,5.75662 102.5,-0.5 Z"/></g>
<g><path style="opacity:1" fill="#f7f5f5" d="M 119.5,-0.5 C 154.5,-0.5 189.5,-0.5 224.5,-0.5C 224.5,33.5 224.5,67.5 224.5,101.5C 223.168,95.6717 222.002,89.6717 221,83.5C 205.036,33.6869 171.202,5.68688 119.5,-0.5 Z"/></g>
<g><path style="opacity:1" fill="#fefbfa" d="M 52.5,35.5 C 66.9135,34.4144 74.0802,41.081 74,55.5C 90.589,67.5446 107.089,79.7113 123.5,92C 127.796,91.2988 132.129,90.4654 136.5,89.5C 136.83,82.8002 136.497,76.1335 135.5,69.5C 128.893,65.2111 126.726,59.2111 129,51.5C 134.821,43.2424 142.321,41.4091 151.5,46C 158.037,51.4753 159.204,57.9753 155,65.5C 153.622,67.2134 151.955,68.5467 150,69.5C 149.5,76.1583 149.334,82.825 149.5,89.5C 169.519,93.8463 180.186,106.18 181.5,126.5C 180.71,143.561 172.377,155.395 156.5,162C 148.889,163.478 141.222,163.812 133.5,163C 128.695,162.233 124.361,160.4 120.5,157.5C 114.353,162.48 108.353,167.646 102.5,173C 104.993,182.361 101.327,187.527 91.5,188.5C 81.3758,186.917 77.8758,181.251 81,171.5C 84.9012,167.317 89.7346,165.483 95.5,166C 100.571,161.051 105.738,156.217 111,151.5C 111.667,150.5 111.667,149.5 111,148.5C 99.79,130.854 101.29,114.354 115.5,99C 99.0074,87.2532 82.3407,75.7532 65.5,64.5C 54.3209,68.9931 46.4876,65.6598 42,54.5C 40.8044,45.5568 44.3044,39.2235 52.5,35.5 Z"/></g>
<g><path style="opacity:1" fill="#f37639" d="M 136.5,106.5 C 149.959,104.308 158.792,109.641 163,122.5C 164.097,133.465 159.597,141.299 149.5,146C 137.362,149.016 128.528,144.849 123,133.5C 120.619,120.929 125.119,111.929 136.5,106.5 Z"/></g>
<g><path style="opacity:1" fill="#f7f5f5" d="M 224.5,120.5 C 224.5,155.167 224.5,189.833 224.5,224.5C 189.833,224.5 155.167,224.5 120.5,224.5C 127.038,223.429 133.705,222.263 140.5,221C 189.861,205.155 217.861,171.655 224.5,120.5 Z"/></g>
<g><path style="opacity:1" fill="#f7f5f5" d="M -0.5,119.5 C 0.8996,129.524 3.06627,139.524 6,149.5C 23.6643,192.676 55.4976,217.676 101.5,224.5C 67.5,224.5 33.5,224.5 -0.5,224.5C -0.5,189.5 -0.5,154.5 -0.5,119.5 Z"/></g>
</svg>
