<?xml version="1.0" encoding="UTF-8"?>
<!DOCTYPE svg PUBLIC "-//W3C//DTD SVG 1.1//EN" "http://www.w3.org/Graphics/SVG/1.1/DTD/svg11.dtd">
<svg xmlns="http://www.w3.org/2000/svg" version="1.1" width="333px" height="151px" style="shape-rendering:geometricPrecision; text-rendering:geometricPrecision; image-rendering:optimizeQuality; fill-rule:evenodd; clip-rule:evenodd" xmlns:xlink="http://www.w3.org/1999/xlink">
<g><path style="opacity:1" fill="#9e4866" d="M 92.5,4.5 C 89.1401,4.38413 85.8067,4.0508 82.5,3.5C 71.6109,3.36114 60.9442,4.69447 50.5,7.5C 62.3017,2.85594 74.635,1.35594 87.5,3C 89.3817,3.19808 91.0484,3.69808 92.5,4.5 Z"/></g>
<g><path style="opacity:1" fill="#b14168" d="M 82.5,3.5 C 85.8067,4.0508 89.1401,4.38413 92.5,4.5C 99.5531,5.07112 105.886,7.40445 111.5,11.5C 101.988,8.11636 92.3213,5.44969 82.5,3.5 Z"/></g>
<g><path style="opacity:1" fill="#c5366a" d="M 82.5,3.5 C 92.3213,5.44969 101.988,8.11636 111.5,11.5C 111.833,11.5 112.167,11.5 112.5,11.5C 112.5,12.1667 112.5,12.8333 112.5,13.5C 110.69,12.0449 109.023,12.2116 107.5,14C 109.595,14.5556 109.762,15.0556 108,15.5C 107,15.1667 106,14.8333 105,14.5C 102.276,15.6868 99.4431,16.3535 96.5,16.5C 96.5,15.5 96.5,14.5 96.5,13.5C 88.0228,11.1562 84.5228,14.1562 86,22.5C 89.0741,24.7335 90.5741,27.7335 90.5,31.5C 86.3811,31.8011 84.3811,29.8011 84.5,25.5C 82.2903,24.0183 80.6236,24.5183 79.5,27C 75.7887,27.8253 72.122,27.6586 68.5,26.5C 69.0253,25.8076 69.6919,25.3076 70.5,25C 73.4816,24.502 76.4816,24.3354 79.5,24.5C 79.5,23.5 79.5,22.5 79.5,21.5C 79.5,20.8333 79.5,20.1667 79.5,19.5C 79.5,17.8333 79.5,16.1667 79.5,14.5C 77.777,13.1999 75.6103,12.5332 73,12.5C 66.0018,13.233 59.1685,14.733 52.5,17C 50.4556,17.4983 49.1223,18.665 48.5,20.5C 41.9159,24.7465 35.9159,29.7465 30.5,35.5C 25.4672,41.5688 21.4672,48.2355 18.5,55.5C 16.6885,57.3854 15.5218,59.7187 15,62.5C 14.6667,70.8333 14.3333,79.1667 14,87.5C 13.6667,84.8333 13.3333,82.1667 13,79.5C 12.3333,80.8333 11.6667,80.8333 11,79.5C 10.4653,84.0948 10.9653,88.5948 12.5,93C 11.9681,95.0197 10.6348,95.853 8.5,95.5C 8.66409,92.8127 8.49742,90.146 8,87.5C 7.72158,86.5842 7.22158,85.9175 6.5,85.5C 5.34485,78.3451 5.17818,71.0118 6,63.5C 8.46981,59.2079 9.80314,54.5413 10,49.5C 10.6152,47.8839 11.6152,46.5505 13,45.5C 13.4955,43.5273 13.6621,41.5273 13.5,39.5C 17.386,35.4234 21.0526,31.0901 24.5,26.5C 29.213,22.1168 33.8797,17.7834 38.5,13.5C 41.9468,10.5623 45.9468,8.56228 50.5,7.5C 60.9442,4.69447 71.6109,3.36114 82.5,3.5 Z"/></g>
<g><path style="opacity:1" fill="#ababaf" d="M 32.5,8.5 C 33.8333,9.16667 33.8333,9.16667 32.5,8.5 Z"/></g>
<g><path style="opacity:1" fill="#ae496c" d="M 79.5,14.5 C 68.6379,13.9393 58.3045,15.9393 48.5,20.5C 49.1223,18.665 50.4556,17.4983 52.5,17C 59.1685,14.733 66.0018,13.233 73,12.5C 75.6103,12.5332 77.777,13.1999 79.5,14.5 Z"/></g>
<g><path style="opacity:1" fill="#c8346b" d="M 112.5,13.5 C 113.828,14.9097 113.495,16.0764 111.5,17C 113.167,17.3333 114.833,17.6667 116.5,18C 119.329,20.8273 122.663,22.8273 126.5,24C 127.337,25.0113 127.67,26.1779 127.5,27.5C 130.925,27.7571 132.925,29.5905 133.5,33C 131.861,36.4415 130.527,39.9415 129.5,43.5C 130.5,43.5 131.5,43.5 132.5,43.5C 132.33,40.5095 133.663,38.5095 136.5,37.5C 139.193,43.2498 142.026,48.2498 145,52.5C 149.098,65.6442 149.431,78.9775 146,92.5C 145.501,88.1794 145.334,83.8461 145.5,79.5C 142.221,78.9694 140.887,76.9694 141.5,73.5C 143.647,72.0679 143.98,70.2345 142.5,68C 139.758,69.283 136.758,69.6164 133.5,69C 133.167,68.6667 132.833,68.3333 132.5,68C 136.333,66.6306 135.999,65.7972 131.5,65.5C 119.854,66.4133 108.187,66.7466 96.5,66.5C 96.5,65.5 96.5,64.5 96.5,63.5C 95.5,63.5 94.5,63.5 93.5,63.5C 92.8846,68.5258 92.0513,73.5258 91,78.5C 89.886,76.0302 89.386,73.3636 89.5,70.5C 91.7404,63.1943 92.7404,55.5276 92.5,47.5C 91.5,47.5 90.5,47.5 89.5,47.5C 89.481,41.3372 86.6477,38.0038 81,37.5C 80.5357,38.0944 80.369,38.7611 80.5,39.5C 78.369,40.3138 76.0356,40.8138 73.5,41C 72.8742,41.7504 72.3742,42.5838 72,43.5C 71.1709,63.6709 71.3375,83.6709 72.5,103.5C 72.5,105.5 72.5,107.5 72.5,109.5C 71.719,111.322 70.5523,111.989 69,111.5C 68.6667,110.167 68.3333,108.833 68,107.5C 67.8331,86.8253 67.3331,66.1586 66.5,45.5C 64.9291,44.6906 63.2624,44.3573 61.5,44.5C 60.9423,43.2101 59.9423,42.3768 58.5,42C 54.6425,41.1901 50.9758,41.3567 47.5,42.5C 40.6522,39.1836 38.9856,41.017 42.5,48C 41.2995,53.8453 40.2995,53.6787 39.5,47.5C 37.8008,47.6602 36.1341,47.4935 34.5,47C 34.5649,45.1712 34.8982,43.3379 35.5,41.5C 42.6659,31.5165 52.3325,25.3498 64.5,23C 69.496,22.3893 74.496,21.8893 79.5,21.5C 79.5,22.5 79.5,23.5 79.5,24.5C 76.4816,24.3354 73.4816,24.502 70.5,25C 69.6919,25.3076 69.0253,25.8076 68.5,26.5C 72.122,27.6586 75.7887,27.8253 79.5,27C 80.6236,24.5183 82.2903,24.0183 84.5,25.5C 84.3811,29.8011 86.3811,31.8011 90.5,31.5C 90.5741,27.7335 89.0741,24.7335 86,22.5C 84.5228,14.1562 88.0228,11.1562 96.5,13.5C 96.5,14.5 96.5,15.5 96.5,16.5C 99.4431,16.3535 102.276,15.6868 105,14.5C 106,14.8333 107,15.1667 108,15.5C 109.762,15.0556 109.595,14.5556 107.5,14C 109.023,12.2116 110.69,12.0449 112.5,13.5 Z"/></g>
<g><path style="opacity:1" fill="#fbe9f4" d="M 79.5,14.5 C 79.5,16.1667 79.5,17.8333 79.5,19.5C 77.8333,19.5 76.1667,19.5 74.5,19.5C 75.5676,18.5655 76.901,18.2322 78.5,18.5C 78.5,17.5 78.5,16.5 78.5,15.5C 72.7149,15.7159 67.0482,16.5492 61.5,18C 60.0072,19.1562 60.1739,19.9896 62,20.5C 65.1052,19.6328 68.2719,19.2994 71.5,19.5C 60.6894,21.329 50.6894,25.329 41.5,31.5C 40.7961,29.6558 39.4628,29.1558 37.5,30C 36.1811,33.155 33.8477,34.9884 30.5,35.5C 35.9159,29.7465 41.9159,24.7465 48.5,20.5C 58.3045,15.9393 68.6379,13.9393 79.5,14.5 Z"/></g>
<g><path style="opacity:1" fill="#fcfbfc" d="M 74.5,19.5 C 73.5,19.5 72.5,19.5 71.5,19.5C 68.2719,19.2994 65.1052,19.6328 62,20.5C 60.1739,19.9896 60.0072,19.1562 61.5,18C 67.0482,16.5492 72.7149,15.7159 78.5,15.5C 78.5,16.5 78.5,17.5 78.5,18.5C 76.901,18.2322 75.5676,18.5655 74.5,19.5 Z"/></g>
<g><path style="opacity:1" fill="#a7486b" d="M 38.5,13.5 C 33.8797,17.7834 29.213,22.1168 24.5,26.5C 21.0526,31.0901 17.386,35.4234 13.5,39.5C 19.1134,28.2199 27.4468,19.5532 38.5,13.5 Z"/></g>
<g><path style="opacity:1" fill="#ab4569" d="M 71.5,19.5 C 72.5,19.5 73.5,19.5 74.5,19.5C 76.1667,19.5 77.8333,19.5 79.5,19.5C 79.5,20.1667 79.5,20.8333 79.5,21.5C 74.496,21.8893 69.496,22.3893 64.5,23C 52.3325,25.3498 42.6659,31.5165 35.5,41.5C 33.1725,42.7356 32.0058,44.7356 32,47.5C 28.3739,52.4295 25.7072,57.7628 24,63.5C 23.5003,71.4931 23.3336,79.4931 23.5,87.5C 20.738,77.5918 20.9046,67.5918 24,57.5C 28.0976,47.6299 33.9309,38.9632 41.5,31.5C 50.6894,25.329 60.6894,21.329 71.5,19.5 Z"/></g>
<g><path style="opacity:1" fill="#5b5e5e" d="M 326.5,69.5 C 325.448,69.3505 324.448,69.5172 323.5,70C 324.814,76.7624 325.48,83.7624 325.5,91C 325.491,98.0768 325.158,105.077 324.5,112C 325.066,112.995 325.733,113.828 326.5,114.5C 319.913,116.461 312.913,117.128 305.5,116.5C 305.663,114.143 305.497,111.81 305,109.5C 297.46,117.347 288.294,120.18 277.5,118C 260.034,113.192 250.534,101.692 249,83.5C 247.626,43.9239 266.459,27.7572 305.5,35C 318.757,39.4202 325.757,48.5869 326.5,62.5C 318.16,62.6664 309.827,62.4997 301.5,62C 297.981,52.541 291.647,49.8744 282.5,54C 278.349,57.1281 275.849,61.2948 275,66.5C 273.628,75.8159 274.628,84.8159 278,93.5C 284.336,101.339 291.503,102.339 299.5,96.5C 301.564,93.5388 303.231,90.3721 304.5,87C 299.177,86.5006 293.844,86.334 288.5,86.5C 288.5,80.5 288.5,74.5 288.5,68.5C 301.344,68.1713 314.011,68.5046 326.5,69.5 Z"/></g>
<g><path style="opacity:1" fill="#5a5d5d" d="M 187.5,34.5 C 195.5,34.5 203.5,34.5 211.5,34.5C 211.5,54.8333 211.5,75.1667 211.5,95.5C 223.5,95.5 235.5,95.5 247.5,95.5C 247.855,102.348 247.855,109.348 247.5,116.5C 227.5,116.5 207.5,116.5 187.5,116.5C 187.5,89.1667 187.5,61.8333 187.5,34.5 Z"/></g>
<g><path style="opacity:1" fill="#c7356b" d="M 141.5,73.5 C 141.586,72.5041 141.252,71.6708 140.5,71C 125.504,70.5001 110.504,70.3334 95.5,70.5C 95.6495,69.448 95.4828,68.448 95,67.5C 93.4226,71.2826 92.5893,75.2826 92.5,79.5C 104.838,79.3335 117.171,79.5001 129.5,80C 130.081,80.8926 130.415,81.8926 130.5,83C 129.569,87.2214 128.569,91.3881 127.5,95.5C 126.527,96.7914 125.527,96.7914 124.5,95.5C 123.522,95.9767 122.689,96.6433 122,97.5C 121.885,102.213 120.719,106.546 118.5,110.5C 116.609,111.536 114.776,111.536 113,110.5C 111.796,111.471 111.296,112.471 111.5,113.5C 110.146,111.816 108.479,111.316 106.5,112C 106.833,112.333 107.167,112.667 107.5,113C 106.207,113.49 104.873,113.657 103.5,113.5C 103.351,114.552 103.517,115.552 104,116.5C 104.718,115.549 105.551,115.383 106.5,116C 104.845,117.444 104.178,119.278 104.5,121.5C 100.532,121.477 97.5317,123.144 95.5,126.5C 95.1583,127.338 94.4916,127.672 93.5,127.5C 83.0077,127.19 72.341,127.023 61.5,127C 58.4388,124.965 55.1055,123.799 51.5,123.5C 46.9687,120.321 42.6354,116.655 38.5,112.5C 37.5832,111.873 36.5832,111.539 35.5,111.5C 35.5,111.167 35.5,110.833 35.5,110.5C 36.0768,107.45 34.9101,105.45 32,104.5C 30.6667,101.833 29.3333,99.1667 28,96.5C 27.3292,95.7476 26.4959,95.4142 25.5,95.5C 24.6295,92.8877 23.9628,90.221 23.5,87.5C 23.3336,79.4931 23.5003,71.4931 24,63.5C 25.7072,57.7628 28.3739,52.4295 32,47.5C 32.0058,44.7356 33.1725,42.7356 35.5,41.5C 34.8982,43.3379 34.5649,45.1712 34.5,47C 36.1341,47.4935 37.8008,47.6602 39.5,47.5C 40.2995,53.6787 41.2995,53.8453 42.5,48C 38.9856,41.017 40.6522,39.1836 47.5,42.5C 46.469,43.2485 45.3024,43.9152 44,44.5C 43.1902,49.2574 43.5236,53.9241 45,58.5C 45.3176,60.0609 46.1509,61.2276 47.5,62C 51.5274,62.3311 55.5274,61.9977 59.5,61C 63.0808,57.6784 64.0808,53.845 62.5,49.5C 62.5,49.1667 62.5,48.8333 62.5,48.5C 62.5674,47.0413 62.2341,45.7079 61.5,44.5C 63.2624,44.3573 64.9291,44.6906 66.5,45.5C 67.3331,66.1586 67.8331,86.8253 68,107.5C 68.3333,108.833 68.6667,110.167 69,111.5C 70.5523,111.989 71.719,111.322 72.5,109.5C 79.6635,109.036 86.6635,108.369 93.5,107.5C 95.3079,106.082 95.9746,104.082 95.5,101.5C 95.305,99.097 94.1384,97.4304 92,96.5C 89.405,98.1458 86.5716,98.8125 83.5,98.5C 82.4585,79.5026 82.2919,60.5026 83,41.5C 82.2917,40.6195 81.4584,39.9528 80.5,39.5C 80.369,38.7611 80.5357,38.0944 81,37.5C 86.6477,38.0038 89.481,41.3372 89.5,47.5C 90.5,47.5 91.5,47.5 92.5,47.5C 92.7404,55.5276 91.7404,63.1943 89.5,70.5C 89.386,73.3636 89.886,76.0302 91,78.5C 92.0513,73.5258 92.8846,68.5258 93.5,63.5C 94.5,63.5 95.5,63.5 96.5,63.5C 96.5,64.5 96.5,65.5 96.5,66.5C 108.187,66.7466 119.854,66.4133 131.5,65.5C 135.999,65.7972 136.333,66.6306 132.5,68C 132.833,68.3333 133.167,68.6667 133.5,69C 136.758,69.6164 139.758,69.283 142.5,68C 143.98,70.2345 143.647,72.0679 141.5,73.5 Z"/></g>
<g><path style="opacity:1" fill="#fdfbfe" d="M 79.5,98.5 C 79.2627,99.791 79.596,100.791 80.5,101.5C 83.9619,102.482 87.6286,102.815 91.5,102.5C 91.5,103.5 91.5,104.5 91.5,105.5C 86.1667,105.5 80.8333,105.5 75.5,105.5C 75.3334,86.1638 75.5,66.8305 76,47.5C 76.6667,46.8333 77.3333,46.1667 78,45.5C 78.1684,63.3381 78.6684,81.0047 79.5,98.5 Z"/></g>
<g><path style="opacity:1" fill="#9f3b5f" d="M 73.5,44.5 C 73.1695,65.3401 73.5028,86.0067 74.5,106.5C 80.6446,107.49 86.9779,107.823 93.5,107.5C 86.6635,108.369 79.6635,109.036 72.5,109.5C 72.5,107.5 72.5,105.5 72.5,103.5C 72.1696,83.6596 72.5029,63.9929 73.5,44.5 Z"/></g>
<g><path style="opacity:1" fill="#feeefb" d="M 79.5,43.5 C 79.5,61.8333 79.5,80.1667 79.5,98.5C 78.6684,81.0047 78.1684,63.3381 78,45.5C 77.3333,46.1667 76.6667,46.8333 76,47.5C 75.5,66.8305 75.3334,86.1638 75.5,105.5C 80.8333,105.5 86.1667,105.5 91.5,105.5C 91.5,104.5 91.5,103.5 91.5,102.5C 87.6286,102.815 83.9619,102.482 80.5,101.5C 85.1667,101.5 89.8333,101.5 94.5,101.5C 94.5,103.167 94.5,104.833 94.5,106.5C 87.8333,106.5 81.1667,106.5 74.5,106.5C 74.5,85.5 74.5,64.5 74.5,43.5C 76.1667,43.5 77.8333,43.5 79.5,43.5 Z"/></g>
<g><path style="opacity:1" fill="#fce1f2" d="M 62.5,48.5 C 62.5,48.8333 62.5,49.1667 62.5,49.5C 62.7845,51.4147 62.4511,53.0813 61.5,54.5C 59.5781,45.164 54.7448,43.164 47,48.5C 46.1923,50.5787 46.359,52.5787 47.5,54.5C 49.019,55.8513 50.3523,57.3513 51.5,59C 53.8473,59.3336 56.1806,59.167 58.5,58.5C 53.4074,61.7307 49.2407,60.7307 46,55.5C 44.1667,46 48,42.1667 57.5,44C 59.6592,45.0591 61.3259,46.5591 62.5,48.5 Z"/></g>
<g><path style="opacity:1" fill="#b3466f" d="M 61.5,44.5 C 62.2341,45.7079 62.5674,47.0413 62.5,48.5C 61.3259,46.5591 59.6592,45.0591 57.5,44C 48,42.1667 44.1667,46 46,55.5C 49.2407,60.7307 53.4074,61.7307 58.5,58.5C 59.9744,57.5637 60.9744,56.2303 61.5,54.5C 62.4511,53.0813 62.7845,51.4147 62.5,49.5C 64.0808,53.845 63.0808,57.6784 59.5,61C 55.5274,61.9977 51.5274,62.3311 47.5,62C 46.1509,61.2276 45.3176,60.0609 45,58.5C 43.5236,53.9241 43.1902,49.2574 44,44.5C 45.3024,43.9152 46.469,43.2485 47.5,42.5C 50.9758,41.3567 54.6425,41.1901 58.5,42C 59.9423,42.3768 60.9423,43.2101 61.5,44.5 Z"/></g>
<g><path style="opacity:1" fill="#f7fbfd" d="M 61.5,54.5 C 60.9744,56.2303 59.9744,57.5637 58.5,58.5C 56.1806,59.167 53.8473,59.3336 51.5,59C 50.3523,57.3513 49.019,55.8513 47.5,54.5C 46.359,52.5787 46.1923,50.5787 47,48.5C 54.7448,43.164 59.5781,45.164 61.5,54.5 Z"/></g>
<g><path style="opacity:1" fill="#afb1b2" d="M 285.5,53.5 C 286.833,54.1667 286.833,54.1667 285.5,53.5 Z"/></g>
<g><path style="opacity:1" fill="#b93a69" d="M 80.5,39.5 C 81.4584,39.9528 82.2917,40.6195 83,41.5C 82.2919,60.5026 82.4585,79.5026 83.5,98.5C 86.5716,98.8125 89.405,98.1458 92,96.5C 94.1384,97.4304 95.305,99.097 95.5,101.5C 95.1667,101.5 94.8333,101.5 94.5,101.5C 90.03,100.514 85.3633,100.181 80.5,100.5C 80.8303,81.326 80.497,62.326 79.5,43.5C 78.7261,42.8529 77.7261,42.5195 76.5,42.5C 74.9704,42.6399 73.9704,43.3065 73.5,44.5C 72.5029,63.9929 72.1696,83.6596 72.5,103.5C 71.3375,83.6709 71.1709,63.6709 72,43.5C 72.3742,42.5838 72.8742,41.7504 73.5,41C 76.0356,40.8138 78.369,40.3138 80.5,39.5 Z"/></g>
<g><path style="opacity:1" fill="#b0b3b1" d="M 246.5,63.5 C 247.833,64.1667 247.833,64.1667 246.5,63.5 Z"/></g>
<g><path style="opacity:1" fill="#c16d8e" d="M 79.5,43.5 C 80.497,62.326 80.8303,81.326 80.5,100.5C 85.3633,100.181 90.03,100.514 94.5,101.5C 89.8333,101.5 85.1667,101.5 80.5,101.5C 79.596,100.791 79.2627,99.791 79.5,98.5C 79.5,80.1667 79.5,61.8333 79.5,43.5 Z"/></g>
<g><path style="opacity:1" fill="#464847" d="M 326.5,69.5 C 326.5,84.5 326.5,99.5 326.5,114.5C 325.733,113.828 325.066,112.995 324.5,112C 325.158,105.077 325.491,98.0768 325.5,91C 325.48,83.7624 324.814,76.7624 323.5,70C 324.448,69.5172 325.448,69.3505 326.5,69.5 Z"/></g>
<g><path style="opacity:1" fill="#a34668" d="M 13.5,39.5 C 13.6621,41.5273 13.4955,43.5273 13,45.5C 11.6152,46.5505 10.6152,47.8839 10,49.5C 9.80314,54.5413 8.46981,59.2079 6,63.5C 5.17818,71.0118 5.34485,78.3451 6.5,85.5C 7.11154,88.696 7.11154,91.696 6.5,94.5C 1.53292,75.1482 3.86625,56.8149 13.5,39.5 Z"/></g>
<g><path style="opacity:1" fill="#b93c68" d="M 18.5,55.5 C 12.2538,78.1715 16.5871,98.5048 31.5,116.5C 29.0706,116.884 26.7373,117.551 24.5,118.5C 24.7863,116.723 25.4529,115.056 26.5,113.5C 23.2208,109.533 20.5542,105.199 18.5,100.5C 17.675,99.6143 16.675,99.281 15.5,99.5C 15.1195,94.9115 13.9528,94.5782 12,98.5C 11.5065,100.134 11.3398,101.801 11.5,103.5C 10.6942,102.003 10.0276,100.336 9.5,98.5C 9.04311,97.7025 8.37644,97.3691 7.5,97.5C 7.44312,96.391 7.10978,95.391 6.5,94.5C 7.11154,91.696 7.11154,88.696 6.5,85.5C 7.22158,85.9175 7.72158,86.5842 8,87.5C 8.49742,90.146 8.66409,92.8127 8.5,95.5C 10.6348,95.853 11.9681,95.0197 12.5,93C 10.9653,88.5948 10.4653,84.0948 11,79.5C 11.6667,80.8333 12.3333,80.8333 13,79.5C 13.3333,82.1667 13.6667,84.8333 14,87.5C 14.3333,79.1667 14.6667,70.8333 15,62.5C 15.5218,59.7187 16.6885,57.3854 18.5,55.5 Z"/></g>
<g><path style="opacity:1" fill="#b93c69" d="M 112.5,11.5 C 145.77,33.1277 156.604,63.1277 145,101.5C 143.737,105.234 141.904,108.567 139.5,111.5C 139.708,109.08 139.374,106.747 138.5,104.5C 139.557,104.094 140.891,104.094 142.5,104.5C 142.799,102.396 142.466,100.396 141.5,98.5C 140.833,98.8333 140.167,99.1667 139.5,99.5C 138.702,97.9223 138.202,96.2556 138,94.5C 137.329,93.7476 136.496,93.4142 135.5,93.5C 136.982,88.9855 137.648,84.3188 137.5,79.5C 138.473,77.0521 138.806,74.3854 138.5,71.5C 123.657,71.1707 108.99,71.504 94.5,72.5C 94.5,74.1667 94.5,75.8333 94.5,77.5C 106.655,78.4952 118.989,78.8286 131.5,78.5C 131.5,79.5 131.5,80.5 131.5,81.5C 131.554,86.6586 130.221,91.3252 127.5,95.5C 128.569,91.3881 129.569,87.2214 130.5,83C 130.415,81.8926 130.081,80.8926 129.5,80C 117.171,79.5001 104.838,79.3335 92.5,79.5C 92.5893,75.2826 93.4226,71.2826 95,67.5C 95.4828,68.448 95.6495,69.448 95.5,70.5C 110.504,70.3334 125.504,70.5001 140.5,71C 141.252,71.6708 141.586,72.5041 141.5,73.5C 140.887,76.9694 142.221,78.9694 145.5,79.5C 145.334,83.8461 145.501,88.1794 146,92.5C 149.431,78.9775 149.098,65.6442 145,52.5C 142.026,48.2498 139.193,43.2498 136.5,37.5C 133.663,38.5095 132.33,40.5095 132.5,43.5C 131.5,43.5 130.5,43.5 129.5,43.5C 130.527,39.9415 131.861,36.4415 133.5,33C 132.925,29.5905 130.925,27.7571 127.5,27.5C 127.67,26.1779 127.337,25.0113 126.5,24C 122.663,22.8273 119.329,20.8273 116.5,18C 114.833,17.6667 113.167,17.3333 111.5,17C 113.495,16.0764 113.828,14.9097 112.5,13.5C 112.5,12.8333 112.5,12.1667 112.5,11.5 Z"/></g>
<g><path style="opacity:1" fill="#cb7797" d="M 94.5,77.5 C 107.167,77.5 119.833,77.5 132.5,77.5C 132.768,79.099 132.434,80.4324 131.5,81.5C 131.5,80.5 131.5,79.5 131.5,78.5C 118.989,78.8286 106.655,78.4952 94.5,77.5 Z"/></g>
<g><path style="opacity:1" fill="#c97e9a" d="M 94.5,72.5 C 108.99,71.504 123.657,71.1707 138.5,71.5C 138.806,74.3854 138.473,77.0521 137.5,79.5C 137.5,77.1667 137.5,74.8333 137.5,72.5C 123.167,72.5 108.833,72.5 94.5,72.5 Z"/></g>
<g><path style="opacity:1" fill="#d599b0" d="M 79.5,43.5 C 77.8333,43.5 76.1667,43.5 74.5,43.5C 74.5,64.5 74.5,85.5 74.5,106.5C 73.5028,86.0067 73.1695,65.3401 73.5,44.5C 73.9704,43.3065 74.9704,42.6399 76.5,42.5C 77.7261,42.5195 78.7261,42.8529 79.5,43.5 Z"/></g>
<g><path style="opacity:1" fill="#a84a6b" d="M 135.5,93.5 C 135.477,95.9267 134.977,98.26 134,100.5C 131.481,104.241 129.647,108.241 128.5,112.5C 127.5,112.5 126.5,112.5 125.5,112.5C 129.644,106.543 132.978,100.21 135.5,93.5 Z"/></g>
<g><path style="opacity:1" fill="#fbf0f8" d="M 94.5,72.5 C 108.833,72.5 123.167,72.5 137.5,72.5C 137.5,74.8333 137.5,77.1667 137.5,79.5C 137.648,84.3188 136.982,88.9855 135.5,93.5C 132.978,100.21 129.644,106.543 125.5,112.5C 123.605,113.973 121.939,115.64 120.5,117.5C 118.857,117.48 117.524,118.147 116.5,119.5C 116.167,119 115.833,118.5 115.5,118C 118.458,114.883 120.792,111.383 122.5,107.5C 124.707,103.749 126.374,99.749 127.5,95.5C 130.221,91.3252 131.554,86.6586 131.5,81.5C 132.434,80.4324 132.768,79.099 132.5,77.5C 119.833,77.5 107.167,77.5 94.5,77.5C 94.5,75.8333 94.5,74.1667 94.5,72.5 Z"/></g>
<g><path style="opacity:1" fill="#f8fdfe" d="M 132.5,77.5 C 120.678,76.5049 108.678,76.1716 96.5,76.5C 96.5,75.5 96.5,74.5 96.5,73.5C 109.171,73.3334 121.838,73.5001 134.5,74C 135.337,75.0113 135.67,76.1779 135.5,77.5C 134.5,77.5 133.5,77.5 132.5,77.5 Z"/></g>
<g><path style="opacity:1" fill="#a64e70" d="M 7.5,97.5 C 8.37644,97.3691 9.04311,97.7025 9.5,98.5C 10.0276,100.336 10.6942,102.003 11.5,103.5C 12.4552,105.746 13.1218,108.079 13.5,110.5C 10.743,106.584 8.74303,102.25 7.5,97.5 Z"/></g>
<g><path style="opacity:1" fill="#faedf5" d="M 41.5,31.5 C 33.9309,38.9632 28.0976,47.6299 24,57.5C 20.9046,67.5918 20.738,77.5918 23.5,87.5C 23.9628,90.221 24.6295,92.8877 25.5,95.5C 27.6066,101.398 30.9399,106.398 35.5,110.5C 35.5,110.833 35.5,111.167 35.5,111.5C 39.9795,116.647 45.3128,120.647 51.5,123.5C 53.5,124.833 55.5,126.167 57.5,127.5C 60.2102,129.108 63.2102,130.275 66.5,131C 65.9747,131.692 65.3081,132.192 64.5,132.5C 58.9682,130.367 53.3015,128.7 47.5,127.5C 41.635,124.64 36.3016,120.973 31.5,116.5C 16.5871,98.5048 12.2538,78.1715 18.5,55.5C 21.4672,48.2355 25.4672,41.5688 30.5,35.5C 33.8477,34.9884 36.1811,33.155 37.5,30C 39.4628,29.1558 40.7961,29.6558 41.5,31.5 Z"/></g>
<g><path style="opacity:1" fill="#b4436a" d="M 26.5,127.5 C 21.0479,122.711 16.7145,117.045 13.5,110.5C 15.0744,110.937 16.2411,111.937 17,113.5C 17.23,109.517 18.5634,108.851 21,111.5C 20.6948,113.443 20.6948,115.443 21,117.5C 22.7361,120.527 24.5694,123.86 26.5,127.5 Z"/></g>
<g><path style="opacity:1" fill="#ad426a" d="M 139.5,111.5 C 134.962,119.708 128.962,126.708 121.5,132.5C 123.211,129.444 125.211,126.444 127.5,123.5C 128.376,122.749 129.376,122.249 130.5,122C 133.16,118.054 136.16,114.554 139.5,111.5 Z"/></g>
<g><path style="opacity:1" fill="#c8356a" d="M 135.5,93.5 C 136.496,93.4142 137.329,93.7476 138,94.5C 138.202,96.2556 138.702,97.9223 139.5,99.5C 140.167,99.1667 140.833,98.8333 141.5,98.5C 142.466,100.396 142.799,102.396 142.5,104.5C 140.891,104.094 139.557,104.094 138.5,104.5C 139.374,106.747 139.708,109.08 139.5,111.5C 136.16,114.554 133.16,118.054 130.5,122C 129.376,122.249 128.376,122.749 127.5,123.5C 125.211,126.444 123.211,129.444 121.5,132.5C 117.361,133.335 114.028,135.335 111.5,138.5C 107.026,138.933 103.026,140.433 99.5,143C 92.7853,144.714 86.1187,145.88 79.5,146.5C 76.5,146.5 73.5,146.5 70.5,146.5C 70.33,145.178 70.6634,144.011 71.5,143C 68.443,142.744 65.443,142.244 62.5,141.5C 56.0253,144.121 50.3586,142.788 45.5,137.5C 43.5767,136.692 41.5767,136.192 39.5,136C 37.3799,134.477 37.0465,132.644 38.5,130.5C 36.7156,129.394 34.8822,129.394 33,130.5C 31.022,129.094 28.8553,128.094 26.5,127.5C 24.5694,123.86 22.7361,120.527 21,117.5C 20.6948,115.443 20.6948,113.443 21,111.5C 18.5634,108.851 17.23,109.517 17,113.5C 16.2411,111.937 15.0744,110.937 13.5,110.5C 13.1218,108.079 12.4552,105.746 11.5,103.5C 11.3398,101.801 11.5065,100.134 12,98.5C 13.9528,94.5782 15.1195,94.9115 15.5,99.5C 16.675,99.281 17.675,99.6143 18.5,100.5C 20.5542,105.199 23.2208,109.533 26.5,113.5C 25.4529,115.056 24.7863,116.723 24.5,118.5C 26.7373,117.551 29.0706,116.884 31.5,116.5C 31.369,117.239 31.5357,117.906 32,118.5C 37.2021,122.67 42.0355,127.17 46.5,132C 52.3073,132.713 57.9739,134.046 63.5,136C 72.1667,136.667 80.8333,136.667 89.5,136C 91.9739,135.963 93.9739,135.13 95.5,133.5C 106.72,130.803 116.22,125.137 124,116.5C 124.791,115.255 125.291,113.922 125.5,112.5C 126.5,112.5 127.5,112.5 128.5,112.5C 129.647,108.241 131.481,104.241 134,100.5C 134.977,98.26 135.477,95.9267 135.5,93.5 Z"/></g>
<g><path style="opacity:1" fill="#f3fbfb" d="M 113.5,123.5 C 112.833,123.833 112.167,124.167 111.5,124.5C 109.217,124.608 107.217,125.441 105.5,127C 103.833,127.667 102.167,127.667 100.5,127C 104.908,124.93 109.075,122.43 113,119.5C 113.49,120.793 113.657,122.127 113.5,123.5 Z"/></g>
<g><path style="opacity:1" fill="#a94368" d="M 125.5,112.5 C 125.291,113.922 124.791,115.255 124,116.5C 116.22,125.137 106.72,130.803 95.5,133.5C 95.5,133.167 95.5,132.833 95.5,132.5C 101.419,130.874 106.753,128.207 111.5,124.5C 112.167,124.167 112.833,123.833 113.5,123.5C 116.06,121.727 118.393,119.727 120.5,117.5C 121.939,115.64 123.605,113.973 125.5,112.5 Z"/></g>
<g><path style="opacity:1" fill="#bc3c69" d="M 118.5,110.5 C 112.54,118.102 104.873,123.436 95.5,126.5C 97.5317,123.144 100.532,121.477 104.5,121.5C 104.178,119.278 104.845,117.444 106.5,116C 105.551,115.383 104.718,115.549 104,116.5C 103.517,115.552 103.351,114.552 103.5,113.5C 104.873,113.657 106.207,113.49 107.5,113C 107.167,112.667 106.833,112.333 106.5,112C 108.479,111.316 110.146,111.816 111.5,113.5C 111.296,112.471 111.796,111.471 113,110.5C 114.776,111.536 116.609,111.536 118.5,110.5 Z"/></g>
<g><path style="opacity:1" fill="#b14b6f" d="M 35.5,111.5 C 36.5832,111.539 37.5832,111.873 38.5,112.5C 42.6354,116.655 46.9687,120.321 51.5,123.5C 45.3128,120.647 39.9795,116.647 35.5,111.5 Z"/></g>
<g><path style="opacity:1" fill="#b26d86" d="M 94.5,101.5 C 94.8333,101.5 95.1667,101.5 95.5,101.5C 95.9746,104.082 95.3079,106.082 93.5,107.5C 86.9779,107.823 80.6446,107.49 74.5,106.5C 81.1667,106.5 87.8333,106.5 94.5,106.5C 94.5,104.833 94.5,103.167 94.5,101.5 Z"/></g>
<g><path style="opacity:1" fill="#a9476b" d="M 25.5,95.5 C 26.4959,95.4142 27.3292,95.7476 28,96.5C 29.3333,99.1667 30.6667,101.833 32,104.5C 34.9101,105.45 36.0768,107.45 35.5,110.5C 30.9399,106.398 27.6066,101.398 25.5,95.5 Z"/></g>
<g><path style="opacity:1" fill="#b8436c" d="M 127.5,95.5 C 126.374,99.749 124.707,103.749 122.5,107.5C 121.167,108.5 119.833,109.5 118.5,110.5C 120.719,106.546 121.885,102.213 122,97.5C 122.689,96.6433 123.522,95.9767 124.5,95.5C 125.527,96.7914 126.527,96.7914 127.5,95.5 Z"/></g>
<g><path style="opacity:1" fill="#b43f69" d="M 51.5,123.5 C 55.1055,123.799 58.4388,124.965 61.5,127C 72.341,127.023 83.0077,127.19 93.5,127.5C 81.507,130.166 69.507,130.166 57.5,127.5C 55.5,126.167 53.5,124.833 51.5,123.5 Z"/></g>
<g><path style="opacity:1" fill="#fcf8fc" d="M 95.5,132.5 C 95.5,132.833 95.5,133.167 95.5,133.5C 94.1667,133.5 92.8333,133.5 91.5,133.5C 83.5228,134.49 75.5228,134.657 67.5,134C 67.1667,133.667 66.8333,133.333 66.5,133C 68.087,132.138 69.7536,131.471 71.5,131C 78.5496,130.798 85.5496,130.298 92.5,129.5C 93.1667,129.833 93.8333,130.167 94.5,130.5C 95.6956,130.154 95.6956,129.654 94.5,129C 95.9437,128.219 97.277,128.386 98.5,129.5C 97.2299,130.288 96.2299,131.288 95.5,132.5 Z"/></g>
<g><path style="opacity:1" fill="#ae446a" d="M 31.5,116.5 C 36.3016,120.973 41.635,124.64 47.5,127.5C 52.8304,131.324 58.8304,133.824 65.5,135C 72.8333,135.667 80.1667,135.667 87.5,135C 89.0581,134.79 90.3915,134.29 91.5,133.5C 92.8333,133.5 94.1667,133.5 95.5,133.5C 93.9739,135.13 91.9739,135.963 89.5,136C 80.8333,136.667 72.1667,136.667 63.5,136C 57.9739,134.046 52.3073,132.713 46.5,132C 42.0355,127.17 37.2021,122.67 32,118.5C 31.5357,117.906 31.369,117.239 31.5,116.5 Z"/></g>
<g><path style="opacity:1" fill="#fbe7f3" d="M 122.5,107.5 C 120.792,111.383 118.458,114.883 115.5,118C 115.833,118.5 116.167,119 116.5,119.5C 117.524,118.147 118.857,117.48 120.5,117.5C 118.393,119.727 116.06,121.727 113.5,123.5C 113.657,122.127 113.49,120.793 113,119.5C 109.075,122.43 104.908,124.93 100.5,127C 102.167,127.667 103.833,127.667 105.5,127C 107.217,125.441 109.217,124.608 111.5,124.5C 106.753,128.207 101.419,130.874 95.5,132.5C 96.2299,131.288 97.2299,130.288 98.5,129.5C 97.277,128.386 95.9437,128.219 94.5,129C 95.6956,129.654 95.6956,130.154 94.5,130.5C 93.8333,130.167 93.1667,129.833 92.5,129.5C 85.5496,130.298 78.5496,130.798 71.5,131C 69.7536,131.471 68.087,132.138 66.5,133C 66.8333,133.333 67.1667,133.667 67.5,134C 75.5228,134.657 83.5228,134.49 91.5,133.5C 90.3915,134.29 89.0581,134.79 87.5,135C 80.1667,135.667 72.8333,135.667 65.5,135C 58.8304,133.824 52.8304,131.324 47.5,127.5C 53.3015,128.7 58.9682,130.367 64.5,132.5C 65.3081,132.192 65.9747,131.692 66.5,131C 63.2102,130.275 60.2102,129.108 57.5,127.5C 69.507,130.166 81.507,130.166 93.5,127.5C 94.4916,127.672 95.1583,127.338 95.5,126.5C 104.873,123.436 112.54,118.102 118.5,110.5C 119.833,109.5 121.167,108.5 122.5,107.5 Z"/></g>
<g><path style="opacity:1" fill="#a34f6e" d="M 121.5,132.5 C 118.506,135 115.173,137 111.5,138.5C 114.028,135.335 117.361,133.335 121.5,132.5 Z"/></g>
<g><path style="opacity:1" fill="#b63c68" d="M 26.5,127.5 C 28.8553,128.094 31.022,129.094 33,130.5C 34.8822,129.394 36.7156,129.394 38.5,130.5C 37.0465,132.644 37.3799,134.477 39.5,136C 41.5767,136.192 43.5767,136.692 45.5,137.5C 50.3586,142.788 56.0253,144.121 62.5,141.5C 65.443,142.244 68.443,142.744 71.5,143C 70.6634,144.011 70.33,145.178 70.5,146.5C 73.5,146.5 76.5,146.5 79.5,146.5C 79.5,146.833 79.5,147.167 79.5,147.5C 58.8814,148.299 41.2147,141.632 26.5,127.5 Z"/></g>
<g><path style="opacity:1" fill="#a74a6d" d="M 111.5,138.5 C 101.793,144.516 91.1261,147.516 79.5,147.5C 79.5,147.167 79.5,146.833 79.5,146.5C 86.1187,145.88 92.7853,144.714 99.5,143C 103.026,140.433 107.026,138.933 111.5,138.5 Z"/></g>
</svg>
