<?xml version="1.0" encoding="UTF-8"?>
<!DOCTYPE svg PUBLIC "-//W3C//DTD SVG 1.1//EN" "http://www.w3.org/Graphics/SVG/1.1/DTD/svg11.dtd">
<svg xmlns="http://www.w3.org/2000/svg" version="1.1" width="204px" height="192px" style="shape-rendering:geometricPrecision; text-rendering:geometricPrecision; image-rendering:optimizeQuality; fill-rule:evenodd; clip-rule:evenodd" xmlns:xlink="http://www.w3.org/1999/xlink">
<g><path style="opacity:1" fill="#fefefe" d="M -0.5,-0.5 C 35.5,-0.5 71.5,-0.5 107.5,-0.5C 107.5,14.1667 107.5,28.8333 107.5,43.5C 95.6737,44.3307 83.6737,44.8307 71.5,45C 68.1794,45.9705 66.5127,48.1372 66.5,51.5C 66.1612,66.3618 65.1612,81.0285 63.5,95.5C 51.8286,95.3335 40.1619,95.5001 28.5,96C 27.6667,96.8333 26.8333,97.6667 26,98.5C 24.5236,118.741 24.0236,139.075 24.5,159.5C 24.5,170.167 24.5,180.833 24.5,191.5C 16.1667,191.5 7.83333,191.5 -0.5,191.5C -0.5,127.5 -0.5,63.5 -0.5,-0.5 Z"/></g>
<g><path style="opacity:1" fill="#fefefd" d="M 178.5,-0.5 C 186.833,-0.5 195.167,-0.5 203.5,-0.5C 203.5,63.5 203.5,127.5 203.5,191.5C 195.167,191.5 186.833,191.5 178.5,191.5C 178.5,127.5 178.5,63.5 178.5,-0.5 Z"/></g>
<g><path style="opacity:1" fill="#e6b311" d="M 109.5,-0.5 C 131.5,-0.5 153.5,-0.5 175.5,-0.5C 175.5,4.83333 175.5,10.1667 175.5,15.5C 154.167,15.5 132.833,15.5 111.5,15.5C 110.365,18.0891 109.865,26.0891 110,39.5C 109.5,26.1708 109.333,12.8375 109.5,-0.5 Z"/></g>
<g><path style="opacity:1" fill="#e2ab11" d="M 175.5,-0.5 C 176.167,-0.5 176.833,-0.5 177.5,-0.5C 177.5,12.8333 177.5,26.1667 177.5,39.5C 176.673,34.3491 176.173,29.0158 176,23.5C 175.505,25.4727 175.338,27.4727 175.5,29.5C 154.167,29.5 132.833,29.5 111.5,29.5C 111.5,24.8333 111.5,20.1667 111.5,15.5C 132.833,15.5 154.167,15.5 175.5,15.5C 175.5,10.1667 175.5,4.83333 175.5,-0.5 Z"/></g>
<g><path style="opacity:1" fill="#dea410" d="M 107.5,-0.5 C 108.167,-0.5 108.833,-0.5 109.5,-0.5C 109.333,12.8375 109.5,26.1708 110,39.5C 109.865,26.0891 110.365,18.0891 111.5,15.5C 111.5,20.1667 111.5,24.8333 111.5,29.5C 132.833,29.5 154.167,29.5 175.5,29.5C 175.831,38.1922 175.498,46.8589 174.5,55.5C 172.914,53.8273 172.247,51.8273 172.5,49.5C 165.112,50.6893 157.779,52.0226 150.5,53.5C 148.49,51.8287 146.157,51.162 143.5,51.5C 143.657,50.1266 143.49,48.7932 143,47.5C 141.42,53.938 140.587,53.938 140.5,47.5C 139.5,47.5 138.5,47.5 137.5,47.5C 137.5,48.5 137.5,49.5 137.5,50.5C 137.167,50.5 136.833,50.5 136.5,50.5C 136.5,49.8333 136.167,49.5 135.5,49.5C 134.525,47.8073 133.192,46.3073 131.5,45C 123.422,44.8021 115.422,44.3021 107.5,43.5C 107.5,28.8333 107.5,14.1667 107.5,-0.5 Z"/></g>
<g><path style="opacity:1" fill="#f6dd77" d="M 107.5,43.5 C 115.422,44.3021 123.422,44.8021 131.5,45C 133.192,46.3073 134.525,47.8073 135.5,49.5C 135.64,55.5362 135.307,61.5362 134.5,67.5C 113.506,64.8606 92.506,64.8606 71.5,67.5C 71.6659,62.4889 71.4993,57.4889 71,52.5C 70.5002,61.4938 70.3336,70.4938 70.5,79.5C 70.5,84.8333 70.5,90.1667 70.5,95.5C 69.1667,95.5 67.8333,95.5 66.5,95.5C 66.5,80.8333 66.5,66.1667 66.5,51.5C 66.5127,48.1372 68.1794,45.9705 71.5,45C 83.6737,44.8307 95.6737,44.3307 107.5,43.5 Z"/></g>
<g><path style="opacity:1" fill="#d9990d" d="M 177.5,39.5 C 177.5,42.1667 177.5,44.8333 177.5,47.5C 176.671,55.3228 176.171,63.3228 176,71.5C 175.506,69.8659 175.34,68.1992 175.5,66.5C 167.567,67.9914 159.567,68.4914 151.5,68C 149.968,67.3005 148.968,66.1338 148.5,64.5C 146.833,63.8333 145.167,63.1667 143.5,62.5C 142.756,59.557 142.256,56.557 142,53.5C 141.667,55.5 141.333,57.5 141,59.5C 140.51,58.2068 140.343,56.8734 140.5,55.5C 139.5,55.5 138.5,55.5 137.5,55.5C 137.5,53.8333 137.5,52.1667 137.5,50.5C 137.5,49.5 137.5,48.5 137.5,47.5C 138.5,47.5 139.5,47.5 140.5,47.5C 140.587,53.938 141.42,53.938 143,47.5C 143.49,48.7932 143.657,50.1266 143.5,51.5C 146.157,51.162 148.49,51.8287 150.5,53.5C 157.779,52.0226 165.112,50.6893 172.5,49.5C 172.247,51.8273 172.914,53.8273 174.5,55.5C 175.498,46.8589 175.831,38.1922 175.5,29.5C 175.338,27.4727 175.505,25.4727 176,23.5C 176.173,29.0158 176.673,34.3491 177.5,39.5 Z"/></g>
<g><path style="opacity:1" fill="#f4d669" d="M 135.5,49.5 C 136.167,49.5 136.5,49.8333 136.5,50.5C 136.5,60.1667 136.5,69.8333 136.5,79.5C 114.5,79.5 92.5,79.5 70.5,79.5C 70.3336,70.4938 70.5002,61.4938 71,52.5C 71.4993,57.4889 71.6659,62.4889 71.5,67.5C 92.506,64.8606 113.506,64.8606 134.5,67.5C 135.307,61.5362 135.64,55.5362 135.5,49.5 Z"/></g>
<g><path style="opacity:1" fill="#d2910d" d="M 177.5,47.5 C 177.666,60.8513 177.333,74.1846 176.5,87.5C 175.521,84.3752 175.187,81.0419 175.5,77.5C 169.699,78.2687 163.865,78.9354 158,79.5C 154.833,79.3333 151.667,79.1667 148.5,79C 146.764,77.0527 144.93,75.2194 143,73.5C 142.501,78.1548 142.334,82.8215 142.5,87.5C 140.885,80.4992 139.718,73.1658 139,65.5C 137.903,72.9077 137.069,80.2411 136.5,87.5C 136.5,84.8333 136.5,82.1667 136.5,79.5C 136.5,69.8333 136.5,60.1667 136.5,50.5C 136.833,50.5 137.167,50.5 137.5,50.5C 137.5,52.1667 137.5,53.8333 137.5,55.5C 138.5,55.5 139.5,55.5 140.5,55.5C 140.343,56.8734 140.51,58.2068 141,59.5C 141.333,57.5 141.667,55.5 142,53.5C 142.256,56.557 142.756,59.557 143.5,62.5C 145.167,63.1667 146.833,63.8333 148.5,64.5C 148.968,66.1338 149.968,67.3005 151.5,68C 159.567,68.4914 167.567,67.9914 175.5,66.5C 175.34,68.1992 175.506,69.8659 176,71.5C 176.171,63.3228 176.671,55.3228 177.5,47.5 Z"/></g>
<g><path style="opacity:1" fill="#f0ce5d" d="M 70.5,79.5 C 92.5,79.5 114.5,79.5 136.5,79.5C 136.5,82.1667 136.5,84.8333 136.5,87.5C 135.527,89.9479 135.194,92.6146 135.5,95.5C 123.114,95.1057 110.78,95.6057 98.5,97C 99.1667,97.3333 99.8333,97.6667 100.5,98C 98.9698,99.1203 97.3032,99.9536 95.5,100.5C 93.8523,99.1902 92.1856,97.8569 90.5,96.5C 83.8665,95.5033 77.1998,95.17 70.5,95.5C 70.5,90.1667 70.5,84.8333 70.5,79.5 Z"/></g>
<g><path style="opacity:1" fill="#f7e59c" d="M 63.5,95.5 C 52.9924,96.1666 42.3258,96.8333 31.5,97.5C 42.1511,98.3324 52.8178,98.8324 63.5,99C 51.1379,99.8634 38.8045,100.03 26.5,99.5C 25.5817,108.793 25.2483,118.127 25.5,127.5C 25.8278,138.346 25.4944,149.013 24.5,159.5C 24.0236,139.075 24.5236,118.741 26,98.5C 26.8333,97.6667 27.6667,96.8333 28.5,96C 40.1619,95.5001 51.8286,95.3335 63.5,95.5 Z"/></g>
<g><path style="opacity:1" fill="#cb8520" d="M 177.5,-0.5 C 177.833,-0.5 178.167,-0.5 178.5,-0.5C 178.5,63.5 178.5,127.5 178.5,191.5C 178.167,191.5 177.833,191.5 177.5,191.5C 177.5,178.167 177.5,164.833 177.5,151.5C 177.826,143.316 177.492,135.316 176.5,127.5C 176.577,123.785 176.244,120.119 175.5,116.5C 167.493,116.666 159.493,116.5 151.5,116C 149.246,115.376 147.579,114.043 146.5,112C 145.552,111.517 144.552,111.351 143.5,111.5C 143.649,112.552 143.483,113.552 143,114.5C 142.667,110.833 142.333,107.167 142,103.5C 141.485,112.764 140.652,112.764 139.5,103.5C 137.874,112.758 137.208,122.092 137.5,131.5C 137.167,131.5 136.833,131.5 136.5,131.5C 136.5,131.167 136.5,130.833 136.5,130.5C 136.5,126.833 136.5,123.167 136.5,119.5C 136.5,108.833 136.5,98.1667 136.5,87.5C 137.069,80.2411 137.903,72.9077 139,65.5C 139.718,73.1658 140.885,80.4992 142.5,87.5C 142.263,91.2733 142.763,94.9399 144,98.5C 145.972,99.3052 147.472,100.639 148.5,102.5C 157.475,103.498 166.475,103.832 175.5,103.5C 175.833,98.1667 176.167,92.8333 176.5,87.5C 177.333,74.1846 177.666,60.8513 177.5,47.5C 177.5,44.8333 177.5,42.1667 177.5,39.5C 177.5,26.1667 177.5,12.8333 177.5,-0.5 Z"/></g>
<g><path style="opacity:1" fill="#cf8a0b" d="M 176.5,87.5 C 176.167,92.8333 175.833,98.1667 175.5,103.5C 166.475,103.832 157.475,103.498 148.5,102.5C 147.472,100.639 145.972,99.3052 144,98.5C 142.763,94.9399 142.263,91.2733 142.5,87.5C 142.334,82.8215 142.501,78.1548 143,73.5C 144.93,75.2194 146.764,77.0527 148.5,79C 151.667,79.1667 154.833,79.3333 158,79.5C 163.865,78.9354 169.699,78.2687 175.5,77.5C 175.187,81.0419 175.521,84.3752 176.5,87.5 Z"/></g>
<g><path style="opacity:1" fill="#f9e282" d="M 66.5,51.5 C 66.5,66.1667 66.5,80.8333 66.5,95.5C 67.8333,95.5 69.1667,95.5 70.5,95.5C 77.1998,95.17 83.8665,95.5033 90.5,96.5C 92.1856,97.8569 93.8523,99.1902 95.5,100.5C 95.5,102.833 95.5,105.167 95.5,107.5C 93.6064,108.048 91.9397,109.048 90.5,110.5C 88.6667,110.833 86.8333,111.167 85,111.5C 67.1811,110.577 49.3477,110.243 31.5,110.5C 31.8222,116.358 31.4889,122.025 30.5,127.5C 30.831,119.472 30.4977,111.472 29.5,103.5C 28.8333,114.326 28.1666,124.992 27.5,135.5C 27.1667,135.5 26.8333,135.5 26.5,135.5C 26.8064,132.615 26.4731,129.948 25.5,127.5C 25.2483,118.127 25.5817,108.793 26.5,99.5C 38.8045,100.03 51.1379,99.8634 63.5,99C 52.8178,98.8324 42.1511,98.3324 31.5,97.5C 42.3258,96.8333 52.9924,96.1666 63.5,95.5C 65.1612,81.0285 66.1612,66.3618 66.5,51.5 Z"/></g>
<g><path style="opacity:1" fill="#edc64e" d="M 135.5,95.5 C 135.5,100.833 135.5,106.167 135.5,111.5C 125.013,114.119 114.347,115.453 103.5,115.5C 103.657,114.127 103.49,112.793 103,111.5C 102.503,114.146 102.336,116.813 102.5,119.5C 101.5,119.5 100.5,119.5 99.5,119.5C 99.5,116.833 99.5,114.167 99.5,111.5C 98.5,111.5 97.5,111.5 96.5,111.5C 96.8064,114.385 96.4731,117.052 95.5,119.5C 95.5,115.5 95.5,111.5 95.5,107.5C 95.5,105.167 95.5,102.833 95.5,100.5C 97.3032,99.9536 98.9698,99.1203 100.5,98C 99.8333,97.6667 99.1667,97.3333 98.5,97C 110.78,95.6057 123.114,95.1057 135.5,95.5 Z"/></g>
<g><path style="opacity:1" fill="#c67807" d="M 176.5,127.5 C 176.666,132.844 176.499,138.177 176,143.5C 176.007,137.296 175.007,136.63 173,141.5C 172.51,140.207 172.343,138.873 172.5,137.5C 171.127,137.343 169.793,137.51 168.5,138C 168.833,138.333 169.167,138.667 169.5,139C 166.183,139.498 162.85,139.665 159.5,139.5C 159.5,138.167 159.5,136.833 159.5,135.5C 156.833,135.5 154.167,135.5 151.5,135.5C 151.5,132.833 151.5,130.167 151.5,127.5C 149.844,129.182 147.177,129.848 143.5,129.5C 143.54,126.119 143.207,122.786 142.5,119.5C 141.5,119.5 140.5,119.5 139.5,119.5C 139.149,123.684 138.482,127.684 137.5,131.5C 137.208,122.092 137.874,112.758 139.5,103.5C 140.652,112.764 141.485,112.764 142,103.5C 142.333,107.167 142.667,110.833 143,114.5C 143.483,113.552 143.649,112.552 143.5,111.5C 144.552,111.351 145.552,111.517 146.5,112C 147.579,114.043 149.246,115.376 151.5,116C 159.493,116.5 167.493,116.666 175.5,116.5C 176.244,120.119 176.577,123.785 176.5,127.5 Z"/></g>
<g><path style="opacity:1" fill="#f7e073" d="M 95.5,107.5 C 95.5,111.5 95.5,115.5 95.5,119.5C 95.5,123.5 95.5,127.5 95.5,131.5C 74.2201,133.64 52.8868,133.974 31.5,132.5C 30.6906,130.929 30.3573,129.262 30.5,127.5C 31.4889,122.025 31.8222,116.358 31.5,110.5C 49.3477,110.243 67.1811,110.577 85,111.5C 86.8333,111.167 88.6667,110.833 90.5,110.5C 91.9397,109.048 93.6064,108.048 95.5,107.5 Z"/></g>
<g><path style="opacity:1" fill="#edbd41" d="M 136.5,87.5 C 136.5,98.1667 136.5,108.833 136.5,119.5C 135.527,121.948 135.194,124.615 135.5,127.5C 124.48,127.168 113.48,127.501 102.5,128.5C 100.291,129.063 98.7908,130.396 98,132.5C 98.0936,136.633 97.2603,140.299 95.5,143.5C 95.5,142.167 95.5,140.833 95.5,139.5C 95.5,136.833 95.5,134.167 95.5,131.5C 95.5,127.5 95.5,123.5 95.5,119.5C 96.4731,117.052 96.8064,114.385 96.5,111.5C 97.5,111.5 98.5,111.5 99.5,111.5C 99.5,114.167 99.5,116.833 99.5,119.5C 100.5,119.5 101.5,119.5 102.5,119.5C 102.336,116.813 102.503,114.146 103,111.5C 103.49,112.793 103.657,114.127 103.5,115.5C 114.347,115.453 125.013,114.119 135.5,111.5C 135.5,106.167 135.5,100.833 135.5,95.5C 135.194,92.6146 135.527,89.9479 136.5,87.5 Z"/></g>
<g><path style="opacity:1" fill="#be6e05" d="M 176.5,127.5 C 177.492,135.316 177.826,143.316 177.5,151.5C 176.512,156.64 176.179,161.974 176.5,167.5C 175.512,162.36 175.179,157.026 175.5,151.5C 174.167,151.5 172.833,151.5 171.5,151.5C 171.5,152.5 171.5,153.5 171.5,154.5C 170.167,154.5 168.833,154.5 167.5,154.5C 167.5,153.5 167.5,152.5 167.5,151.5C 160.492,151.666 153.492,151.5 146.5,151C 144.332,149.035 142.998,146.535 142.5,143.5C 141.262,147.311 140.596,147.311 140.5,143.5C 139.5,143.5 138.5,143.5 137.5,143.5C 137.5,151.5 137.5,159.5 137.5,167.5C 137.5,175.5 137.5,183.5 137.5,191.5C 137.167,191.5 136.833,191.5 136.5,191.5C 136.5,171.5 136.5,151.5 136.5,131.5C 136.833,131.5 137.167,131.5 137.5,131.5C 138.482,127.684 139.149,123.684 139.5,119.5C 140.5,119.5 141.5,119.5 142.5,119.5C 143.207,122.786 143.54,126.119 143.5,129.5C 147.177,129.848 149.844,129.182 151.5,127.5C 151.5,130.167 151.5,132.833 151.5,135.5C 154.167,135.5 156.833,135.5 159.5,135.5C 159.5,136.833 159.5,138.167 159.5,139.5C 162.85,139.665 166.183,139.498 169.5,139C 169.167,138.667 168.833,138.333 168.5,138C 169.793,137.51 171.127,137.343 172.5,137.5C 172.343,138.873 172.51,140.207 173,141.5C 175.007,136.63 176.007,137.296 176,143.5C 176.499,138.177 176.666,132.844 176.5,127.5 Z"/></g>
<g><path style="opacity:1" fill="#e7b531" d="M 136.5,119.5 C 136.5,123.167 136.5,126.833 136.5,130.5C 135.515,134.634 135.182,138.968 135.5,143.5C 132.833,143.5 130.167,143.5 127.5,143.5C 127.5,144.833 127.5,146.167 127.5,147.5C 116.833,147.5 106.167,147.5 95.5,147.5C 95.5,146.167 95.5,144.833 95.5,143.5C 97.2603,140.299 98.0936,136.633 98,132.5C 98.7908,130.396 100.291,129.063 102.5,128.5C 113.48,127.501 124.48,127.168 135.5,127.5C 135.194,124.615 135.527,121.948 136.5,119.5 Z"/></g>
<g><path style="opacity:1" fill="#f8db64" d="M 30.5,127.5 C 30.3573,129.262 30.6906,130.929 31.5,132.5C 52.8868,133.974 74.2201,133.64 95.5,131.5C 95.5,134.167 95.5,136.833 95.5,139.5C 93.6989,142.855 91.3656,145.855 88.5,148.5C 69.3036,147.172 50.1369,147.172 31,148.5C 30.7978,146.744 30.2978,145.078 29.5,143.5C 28.6705,148.802 28.1705,154.136 28,159.5C 27.5003,151.507 27.3336,143.507 27.5,135.5C 28.1666,124.992 28.8333,114.326 29.5,103.5C 30.4977,111.472 30.831,119.472 30.5,127.5 Z"/></g>
<g><path style="opacity:1" fill="#e5ac23" d="M 135.5,143.5 C 135.5,151.5 135.5,159.5 135.5,167.5C 134.167,167.5 132.833,167.5 131.5,167.5C 131.663,169.857 131.497,172.19 131,174.5C 130.624,171.99 129.79,169.657 128.5,167.5C 118.853,168.752 109.186,168.752 99.5,167.5C 99.8134,164.753 99.48,162.086 98.5,159.5C 98.1342,165.229 97.1342,170.563 95.5,175.5C 95.5,172.833 95.5,170.167 95.5,167.5C 95.5,160.833 95.5,154.167 95.5,147.5C 106.167,147.5 116.833,147.5 127.5,147.5C 127.5,146.167 127.5,144.833 127.5,143.5C 130.167,143.5 132.833,143.5 135.5,143.5 Z"/></g>
<g><path style="opacity:1" fill="#f4d654" d="M 26.5,135.5 C 26.8333,135.5 27.1667,135.5 27.5,135.5C 27.3336,143.507 27.5003,151.507 28,159.5C 28.1705,154.136 28.6705,148.802 29.5,143.5C 30.2978,145.078 30.7978,146.744 31,148.5C 50.1369,147.172 69.3036,147.172 88.5,148.5C 91.3656,145.855 93.6989,142.855 95.5,139.5C 95.5,140.833 95.5,142.167 95.5,143.5C 95.5,144.833 95.5,146.167 95.5,147.5C 95.5,154.167 95.5,160.833 95.5,167.5C 74.1667,167.5 52.8333,167.5 31.5,167.5C 31.6641,164.813 31.4974,162.146 31,159.5C 30.6667,167.5 30.3333,175.5 30,183.5C 29,162.167 28,162.167 27,183.5C 26.5001,167.503 26.3334,151.503 26.5,135.5 Z"/></g>
<g><path style="opacity:1" fill="#b96302" d="M 176.5,167.5 C 177.306,175.061 176.972,178.728 175.5,178.5C 167.16,178.666 158.827,178.5 150.5,178C 147.727,176.349 144.894,174.849 142,173.5C 141.667,175.167 141.333,176.833 141,178.5C 140.554,175.657 140.054,172.824 139.5,170C 139.316,168.624 138.649,167.791 137.5,167.5C 137.5,159.5 137.5,151.5 137.5,143.5C 138.5,143.5 139.5,143.5 140.5,143.5C 140.596,147.311 141.262,147.311 142.5,143.5C 142.998,146.535 144.332,149.035 146.5,151C 153.492,151.5 160.492,151.666 167.5,151.5C 167.5,152.5 167.5,153.5 167.5,154.5C 168.833,154.5 170.167,154.5 171.5,154.5C 171.5,153.5 171.5,152.5 171.5,151.5C 172.833,151.5 174.167,151.5 175.5,151.5C 175.179,157.026 175.512,162.36 176.5,167.5 Z"/></g>
<g><path style="opacity:1" fill="#f4d142" d="M 25.5,127.5 C 26.4731,129.948 26.8064,132.615 26.5,135.5C 26.3334,151.503 26.5001,167.503 27,183.5C 28,162.167 29,162.167 30,183.5C 30.3333,175.5 30.6667,167.5 31,159.5C 31.4974,162.146 31.6641,164.813 31.5,167.5C 52.8333,167.5 74.1667,167.5 95.5,167.5C 95.5,170.167 95.5,172.833 95.5,175.5C 95.5,180.833 95.5,186.167 95.5,191.5C 71.8333,191.5 48.1667,191.5 24.5,191.5C 24.5,180.833 24.5,170.167 24.5,159.5C 25.4944,149.013 25.8278,138.346 25.5,127.5 Z"/></g>
<g><path style="opacity:1" fill="#e1a011" d="M 136.5,130.5 C 136.5,130.833 136.5,131.167 136.5,131.5C 136.5,151.5 136.5,171.5 136.5,191.5C 122.833,191.5 109.167,191.5 95.5,191.5C 95.5,186.167 95.5,180.833 95.5,175.5C 97.1342,170.563 98.1342,165.229 98.5,159.5C 99.48,162.086 99.8134,164.753 99.5,167.5C 109.186,168.752 118.853,168.752 128.5,167.5C 129.79,169.657 130.624,171.99 131,174.5C 131.497,172.19 131.663,169.857 131.5,167.5C 132.833,167.5 134.167,167.5 135.5,167.5C 135.5,159.5 135.5,151.5 135.5,143.5C 135.182,138.968 135.515,134.634 136.5,130.5 Z"/></g>
<g><path style="opacity:1" fill="#b45802" d="M 177.5,151.5 C 177.5,164.833 177.5,178.167 177.5,191.5C 164.167,191.5 150.833,191.5 137.5,191.5C 137.5,183.5 137.5,175.5 137.5,167.5C 138.649,167.791 139.316,168.624 139.5,170C 140.054,172.824 140.554,175.657 141,178.5C 141.333,176.833 141.667,175.167 142,173.5C 144.894,174.849 147.727,176.349 150.5,178C 158.827,178.5 167.16,178.666 175.5,178.5C 176.972,178.728 177.306,175.061 176.5,167.5C 176.179,161.974 176.512,156.64 177.5,151.5 Z"/></g>
</svg>
