<?xml version="1.0" encoding="UTF-8"?>
<!DOCTYPE svg PUBLIC "-//W3C//DTD SVG 1.1//EN" "http://www.w3.org/Graphics/SVG/1.1/DTD/svg11.dtd">
<svg xmlns="http://www.w3.org/2000/svg" version="1.1" width="225px" height="225px" style="shape-rendering:geometricPrecision; text-rendering:geometricPrecision; image-rendering:optimizeQuality; fill-rule:evenodd; clip-rule:evenodd" xmlns:xlink="http://www.w3.org/1999/xlink">
<g><path style="opacity:1" fill="#fdfefe" d="M -0.5,-0.5 C 74.5,-0.5 149.5,-0.5 224.5,-0.5C 224.5,74.5 224.5,149.5 224.5,224.5C 149.5,224.5 74.5,224.5 -0.5,224.5C -0.5,149.5 -0.5,74.5 -0.5,-0.5 Z"/></g>
<g><path style="opacity:1" fill="#1fbfcb" d="M 189.5,48.5 C 170.391,55.2222 151.391,62.2222 132.5,69.5C 128.463,70.0653 124.797,71.3987 121.5,73.5C 117.856,74.4035 114.356,75.7368 111,77.5C 85.0665,68.1328 59.2331,58.4662 33.5,48.5C 42.3364,42.6657 51.8364,37.9991 62,34.5C 78.1689,39.9933 94.3356,45.66 110.5,51.5C 127.035,45.985 143.535,40.3183 160,34.5C 170.063,38.7824 179.896,43.4491 189.5,48.5 Z"/></g>
<g><path style="opacity:1" fill="#020303" d="M 33.5,48.5 C 59.2331,58.4662 85.0665,68.1328 111,77.5C 114.356,75.7368 117.856,74.4035 121.5,73.5C 125.537,72.9347 129.203,71.6013 132.5,69.5C 151.391,62.2222 170.391,55.2222 189.5,48.5C 189.831,57.1922 189.498,65.8589 188.5,74.5C 186.055,75.3124 183.722,76.3124 181.5,77.5C 178.284,77.3455 175.617,78.3455 173.5,80.5C 160.546,84.5936 147.879,89.2602 135.5,94.5C 130.362,95.0792 125.695,96.7459 121.5,99.5C 116.018,102.433 110.351,102.933 104.5,101C 88.1672,94.943 71.8338,88.7763 55.5,82.5C 53.4907,80.9348 51.1573,79.9348 48.5,79.5C 43.3283,78.8316 38.495,77.165 34,74.5C 33.5002,65.8397 33.3336,57.1731 33.5,48.5 Z"/></g>
<g><path style="opacity:1" fill="#084a4e" d="M 132.5,69.5 C 129.203,71.6013 125.537,72.9347 121.5,73.5C 124.797,71.3987 128.463,70.0653 132.5,69.5 Z"/></g>
<g><path style="opacity:1" fill="#888888" d="M 181.5,77.5 C 179.064,78.871 176.397,79.871 173.5,80.5C 175.617,78.3455 178.284,77.3455 181.5,77.5 Z"/></g>
<g><path style="opacity:1" fill="#7d7d7d" d="M 48.5,79.5 C 51.1573,79.9348 53.4907,80.9348 55.5,82.5C 52.6538,82.4484 50.3204,81.4484 48.5,79.5 Z"/></g>
<g><path style="opacity:1" fill="#b8b8b8" d="M 135.5,94.5 C 131.305,97.2541 126.638,98.9208 121.5,99.5C 125.695,96.7459 130.362,95.0792 135.5,94.5 Z"/></g>
<g><path style="opacity:1" fill="#020303" d="M 189.5,176.5 C 163.517,167.156 137.517,157.49 111.5,147.5C 105.204,149.48 99.2039,151.813 93.5,154.5C 88.3619,155.079 83.6953,156.746 79.5,159.5C 64.1283,165.191 48.795,170.858 33.5,176.5C 33.5,167.5 33.5,158.5 33.5,149.5C 48.052,145.094 62.3853,140.094 76.5,134.5C 81.6533,133.595 86.6533,132.095 91.5,130C 92.056,129.617 92.3893,129.117 92.5,128.5C 99.2035,125.329 106.204,123.496 113.5,123C 138.344,131.418 163.01,140.418 187.5,150C 189.454,158.566 190.12,167.399 189.5,176.5 Z"/></g>
<g><path style="opacity:1" fill="#4d4d4d" d="M 92.5,128.5 C 92.3893,129.117 92.056,129.617 91.5,130C 86.6533,132.095 81.6533,133.595 76.5,134.5C 81.5254,131.932 86.8587,129.932 92.5,128.5 Z"/></g>
<g><path style="opacity:1" fill="#1fbfcb" d="M 189.5,176.5 C 180.089,181.91 170.256,186.243 160,189.5C 156.146,188.827 152.313,187.993 148.5,187C 136.284,181.857 123.951,177.024 111.5,172.5C 95.1979,178.878 78.6979,184.545 62,189.5C 60.5,189.333 59,189.167 57.5,189C 49.25,185.044 41.25,180.877 33.5,176.5C 48.795,170.858 64.1283,165.191 79.5,159.5C 84.5166,158.607 89.1832,156.94 93.5,154.5C 99.2039,151.813 105.204,149.48 111.5,147.5C 137.517,157.49 163.517,167.156 189.5,176.5 Z"/></g>
<g><path style="opacity:1" fill="#0d7f85" d="M 93.5,154.5 C 89.1832,156.94 84.5166,158.607 79.5,159.5C 83.6953,156.746 88.3619,155.079 93.5,154.5 Z"/></g>
</svg>
