<?xml version="1.0" encoding="UTF-8"?>
<!DOCTYPE svg PUBLIC "-//W3C//DTD SVG 1.1//EN" "http://www.w3.org/Graphics/SVG/1.1/DTD/svg11.dtd">
<svg xmlns="http://www.w3.org/2000/svg" version="1.1" width="225px" height="131px" style="shape-rendering:geometricPrecision; text-rendering:geometricPrecision; image-rendering:optimizeQuality; fill-rule:evenodd; clip-rule:evenodd" xmlns:xlink="http://www.w3.org/1999/xlink">
<g><path style="opacity:1" fill="#fefefe" d="M -0.5,-0.5 C 74.5,-0.5 149.5,-0.5 224.5,-0.5C 224.5,43.1667 224.5,86.8333 224.5,130.5C 149.5,130.5 74.5,130.5 -0.5,130.5C -0.5,86.8333 -0.5,43.1667 -0.5,-0.5 Z"/></g>
<g><path style="opacity:1" fill="#e1f8f9" d="M 38.5,34.5 C 36.769,38.6822 36.269,43.0156 37,47.5C 39.3824,50.4272 41.8824,53.2605 44.5,56C 45.0944,56.4643 45.7611,56.631 46.5,56.5C 51.194,59.5322 55.194,63.1989 58.5,67.5C 62.061,75.1181 62.2277,82.7847 59,90.5C 57.2745,91.464 55.4412,92.1307 53.5,92.5C 59.9216,84.0003 60.0883,75.3337 54,66.5C 47.9789,61.477 42.3122,56.1436 37,50.5C 35.2415,47.3924 34.4081,44.059 34.5,40.5C 34.6287,38.7839 34.962,37.1172 35.5,35.5C 36.8847,34.6977 36.718,34.0311 35,33.5C 23.9988,36.8296 19.6655,44.1629 22,55.5C 22.7918,58.1064 24.2918,60.1064 26.5,61.5C 26.3284,62.4916 26.6618,63.1583 27.5,63.5C 28.5,65.1667 29.8333,66.5 31.5,67.5C 35.1045,70.6015 38.6045,73.9349 42,77.5C 45.9638,84.8818 44.7971,91.3818 38.5,97C 41.5071,97.3013 44.5071,97.1346 47.5,96.5C 47.5,97.5 47.5,98.5 47.5,99.5C 44.7508,99.2739 42.0841,99.6072 39.5,100.5C 37.1419,99.8461 35.4752,98.5128 34.5,96.5C 37.4151,96.0874 39.2484,94.4207 40,91.5C 41.4049,87.9279 41.7383,84.2613 41,80.5C 34.1265,73.8207 27.6265,66.8207 21.5,59.5C 20.1074,52.9298 20.274,46.2631 22,39.5C 24.8333,37.3333 27.3333,34.8333 29.5,32C 32.146,31.5026 34.8127,31.3359 37.5,31.5C 37.2627,32.791 37.596,33.791 38.5,34.5 Z"/></g>
<g><path style="opacity:1" fill="#5f9da4" d="M 35.5,35.5 C 28.0042,37.1154 23.6708,41.7821 22.5,49.5C 24.317,53.3251 25.6503,57.3251 26.5,61.5C 24.2918,60.1064 22.7918,58.1064 22,55.5C 19.6655,44.1629 23.9988,36.8296 35,33.5C 36.718,34.0311 36.8847,34.6977 35.5,35.5 Z"/></g>
<g><path style="opacity:1" fill="#c3bfc3" d="M 46.5,56.5 C 45.7611,56.631 45.0944,56.4643 44.5,56C 41.8824,53.2605 39.3824,50.4272 37,47.5C 36.269,43.0156 36.769,38.6822 38.5,34.5C 39.9362,32.6815 41.6029,32.3482 43.5,33.5C 39.7745,37.459 38.6079,42.1257 40,47.5C 42.3852,50.3785 44.5518,53.3785 46.5,56.5 Z"/></g>
<g><path style="opacity:1" fill="#3fa9ab" d="M 35.5,35.5 C 34.962,37.1172 34.6287,38.7839 34.5,40.5C 33.5,40.5 32.5,40.5 31.5,40.5C 32.8264,43.001 33.3264,45.6677 33,48.5C 32.1376,50.087 31.4709,51.7536 31,53.5C 30.3405,50.9528 30.5071,48.4528 31.5,46C 29.8851,42.9122 29.2184,43.4122 29.5,47.5C 28.1667,47.5 26.8333,47.5 25.5,47.5C 24.9999,51.1638 26.1666,54.1638 29,56.5C 29.1667,57.6667 29.3333,58.8333 29.5,60C 29.3917,61.6811 28.7251,62.8478 27.5,63.5C 26.6618,63.1583 26.3284,62.4916 26.5,61.5C 25.6503,57.3251 24.317,53.3251 22.5,49.5C 23.6708,41.7821 28.0042,37.1154 35.5,35.5 Z"/></g>
<g><path style="opacity:1" fill="#bdbdbf" d="M 183.5,36.5 C 189.851,36.5572 196.185,36.8905 202.5,37.5C 202.5,41.5 202.5,45.5 202.5,49.5C 187.687,44.0639 179.354,49.0639 177.5,64.5C 179.067,80.962 187.733,86.2953 203.5,80.5C 203.823,84.226 203.489,87.8927 202.5,91.5C 193.301,94.4756 184.301,93.9756 175.5,90C 166.518,83.7519 162.518,75.0852 163.5,64C 163.467,49.8795 170.134,40.7128 183.5,36.5 Z"/></g>
<g><path style="opacity:1" fill="#5e9ea2" d="M 31.5,67.5 C 32.8734,67.3433 34.2068,67.51 35.5,68C 37.3333,71.1667 39.8333,73.6667 43,75.5C 44.3484,78.7106 45.1818,82.0439 45.5,85.5C 44.8262,88.8419 44.1595,92.1752 43.5,95.5C 44.8333,95.5 46.1667,95.5 47.5,95.5C 47.5,95.8333 47.5,96.1667 47.5,96.5C 44.5071,97.1346 41.5071,97.3013 38.5,97C 44.7971,91.3818 45.9638,84.8818 42,77.5C 38.6045,73.9349 35.1045,70.6015 31.5,67.5 Z"/></g>
<g><path style="opacity:1" fill="#48a5ad" d="M 34.5,40.5 C 34.4081,44.059 35.2415,47.3924 37,50.5C 42.3122,56.1436 47.9789,61.477 54,66.5C 60.0883,75.3337 59.9216,84.0003 53.5,92.5C 51.7837,94.0248 49.7837,95.0248 47.5,95.5C 46.1667,95.5 44.8333,95.5 43.5,95.5C 44.1595,92.1752 44.8262,88.8419 45.5,85.5C 45.1818,82.0439 44.3484,78.7106 43,75.5C 39.8333,73.6667 37.3333,71.1667 35.5,68C 34.2068,67.51 32.8734,67.3433 31.5,67.5C 29.8333,66.5 28.5,65.1667 27.5,63.5C 28.7251,62.8478 29.3917,61.6811 29.5,60C 29.3333,58.8333 29.1667,57.6667 29,56.5C 26.1666,54.1638 24.9999,51.1638 25.5,47.5C 26.8333,47.5 28.1667,47.5 29.5,47.5C 29.2184,43.4122 29.8851,42.9122 31.5,46C 30.5071,48.4528 30.3405,50.9528 31,53.5C 31.4709,51.7536 32.1376,50.087 33,48.5C 33.3264,45.6677 32.8264,43.001 31.5,40.5C 32.5,40.5 33.5,40.5 34.5,40.5 Z"/></g>
<g><path style="opacity:1" fill="#bdbdc0" d="M 127.5,36.5 C 155.268,37.4438 165.768,51.4438 159,78.5C 149.943,92.1677 137.443,96.6677 121.5,92C 104.226,81.4202 100.059,66.9202 109,48.5C 113.668,42.089 119.835,38.089 127.5,36.5 Z"/></g>
<g><path style="opacity:1" fill="#fdfdfd" d="M 127.5,47.5 C 137.056,45.7198 143.223,49.3865 146,58.5C 146.881,65.5505 145.714,72.2172 142.5,78.5C 131.978,85.7037 124.478,83.3703 120,71.5C 117.4,61.6947 119.9,53.6947 127.5,47.5 Z"/></g>
<g><path style="opacity:1" fill="#bdbdbf" d="M 79.5,36.5 C 86.5761,36.4463 93.5761,37.1129 100.5,38.5C 100.784,41.7766 100.451,44.9433 99.5,48C 94.595,47.1328 89.595,46.7995 84.5,47C 81.2343,47.1232 79.5676,48.7898 79.5,52C 79.3536,54.0342 80.0203,55.7009 81.5,57C 86.1667,58.6667 90.8333,60.3333 95.5,62C 103.458,67.2212 105.625,74.3879 102,83.5C 98.2686,88.2108 93.4353,91.3774 87.5,93C 80.0899,93.6047 72.7566,93.1047 65.5,91.5C 65.5,87.8333 65.5,84.1667 65.5,80.5C 69.9231,81.8068 74.4231,82.8068 79,83.5C 82.603,83.5729 85.603,82.2396 88,79.5C 88.711,77.1009 88.5443,74.7676 87.5,72.5C 80.0644,70.0601 73.0644,66.7268 66.5,62.5C 62.1059,49.3045 66.4393,40.6379 79.5,36.5 Z"/></g>
<g><path style="opacity:1" fill="#bebbbe" d="M 21.5,59.5 C 27.6265,66.8207 34.1265,73.8207 41,80.5C 41.7383,84.2613 41.4049,87.9279 40,91.5C 39.2484,94.4207 37.4151,96.0874 34.5,96.5C 34.0618,96.5654 33.7284,96.3988 33.5,96C 36.0856,91.4892 36.9189,86.6559 36,81.5C 31.5774,74.9888 26.9108,68.6554 22,62.5C 21.5172,61.552 21.3505,60.552 21.5,59.5 Z"/></g>
</svg>
