<?xml version="1.0" encoding="UTF-8"?>
<!DOCTYPE svg PUBLIC "-//W3C//DTD SVG 1.1//EN" "http://www.w3.org/Graphics/SVG/1.1/DTD/svg11.dtd">
<svg xmlns="http://www.w3.org/2000/svg" version="1.1" width="225px" height="225px" style="shape-rendering:geometricPrecision; text-rendering:geometricPrecision; image-rendering:optimizeQuality; fill-rule:evenodd; clip-rule:evenodd" xmlns:xlink="http://www.w3.org/1999/xlink">
<g><path style="opacity:1" fill="#fefefe" d="M -0.5,-0.5 C 74.5,-0.5 149.5,-0.5 224.5,-0.5C 224.5,74.5 224.5,149.5 224.5,224.5C 149.5,224.5 74.5,224.5 -0.5,224.5C -0.5,149.5 -0.5,74.5 -0.5,-0.5 Z"/></g>
<g><path style="opacity:1" fill="#042768" d="M 32.5,76.5 C 35.1667,76.5 37.8333,76.5 40.5,76.5C 40.5,79.8333 40.5,83.1667 40.5,86.5C 43.8333,86.5 47.1667,86.5 50.5,86.5C 50.5,88.5 50.5,90.5 50.5,92.5C 47.1667,92.5 43.8333,92.5 40.5,92.5C 40.3336,100.507 40.5003,108.507 41,116.5C 41.4652,117.931 42.2986,119.097 43.5,120C 46.146,120.497 48.8127,120.664 51.5,120.5C 51.5,122.5 51.5,124.5 51.5,126.5C 47.4862,126.666 43.4862,126.499 39.5,126C 35.4794,124.132 33.3128,120.965 33,116.5C 32.5003,108.507 32.3336,100.507 32.5,92.5C 30.5,92.5 28.5,92.5 26.5,92.5C 26.5,90.5 26.5,88.5 26.5,86.5C 28.5,86.5 30.5,86.5 32.5,86.5C 32.5,83.1667 32.5,79.8333 32.5,76.5 Z"/></g>
<g><path style="opacity:1" fill="#012768" d="M 68.5,93.5 C 67.5056,103.987 67.1722,114.654 67.5,125.5C 65.1667,125.5 62.8333,125.5 60.5,125.5C 60.5,113.167 60.5,100.833 60.5,88.5C 67.2816,86.1248 74.2816,85.1248 81.5,85.5C 81.6633,87.8568 81.4966,90.1902 81,92.5C 76.7467,91.272 72.58,91.6054 68.5,93.5 Z"/></g>
<g><path style="opacity:1" fill="#0d2a6a" d="M 92.5,85.5 C 99.9094,84.6209 106.909,85.7875 113.5,89C 114.211,90.2547 115.044,91.4214 116,92.5C 117.566,102.773 117.899,113.107 117,123.5C 115.352,124.717 113.519,125.55 111.5,126C 105.5,126.667 99.5,126.667 93.5,126C 86.8116,122.441 84.6449,116.941 87,109.5C 88.8734,107.291 91.04,105.458 93.5,104C 98.8229,103.501 104.156,103.334 109.5,103.5C 110.895,95.5612 107.561,91.5612 99.5,91.5C 96.3894,91.6945 93.3894,92.3611 90.5,93.5C 87.1579,89.5701 87.8246,86.9034 92.5,85.5 Z"/></g>
<g><path style="opacity:1" fill="#072a69" d="M 146.5,114.5 C 150.062,105.586 152.395,96.253 153.5,86.5C 156.167,86.5 158.833,86.5 161.5,86.5C 159.098,98.7769 155.765,110.777 151.5,122.5C 148.653,127.686 145.653,132.852 142.5,138C 140.098,138.814 137.765,138.647 135.5,137.5C 137.754,133.993 139.754,130.327 141.5,126.5C 134.508,116.51 129.675,105.51 127,93.5C 125.301,92.5939 123.467,92.2606 121.5,92.5C 121.5,90.5 121.5,88.5 121.5,86.5C 125.5,86.5 129.5,86.5 133.5,86.5C 134.813,98.1162 138.647,108.783 145,118.5C 145.791,117.255 146.291,115.922 146.5,114.5 Z"/></g>
<g><path style="opacity:1" fill="#419dd3" d="M 153.5,86.5 C 152.395,96.253 150.062,105.586 146.5,114.5C 144.579,109.239 142.746,103.906 141,98.5C 140.172,94.534 139.672,90.534 139.5,86.5C 144.167,86.5 148.833,86.5 153.5,86.5 Z"/></g>
<g><path style="opacity:1" fill="#429fd5" d="M 161.5,86.5 C 172.5,86.5 183.5,86.5 194.5,86.5C 194.075,100.61 189.409,113.11 180.5,124C 171.5,124.667 162.5,124.667 153.5,124C 152.956,123.283 152.289,122.783 151.5,122.5C 155.765,110.777 159.098,98.7769 161.5,86.5 Z"/></g>
<g><path style="opacity:1" fill="#8d99b3" d="M 60.5,88.5 C 60.5,100.833 60.5,113.167 60.5,125.5C 62.8333,125.5 65.1667,125.5 67.5,125.5C 67.1722,114.654 67.5056,103.987 68.5,93.5C 68.5,104.5 68.5,115.5 68.5,126.5C 65.5,126.5 62.5,126.5 59.5,126.5C 59.1713,113.656 59.5046,100.989 60.5,88.5 Z"/></g>
<g><path style="opacity:1" fill="#f6f7f9" d="M 97.5,108.5 C 101.5,108.5 105.5,108.5 109.5,108.5C 109.5,112.5 109.5,116.5 109.5,120.5C 105.073,121.829 100.739,121.663 96.5,120C 92.4463,115.773 92.7796,111.939 97.5,108.5 Z"/></g>
<g><path style="opacity:1" fill="#0a2869" d="M 133.5,142.5 C 137.24,141.68 139.573,143.013 140.5,146.5C 139.505,151.753 136.838,152.753 132.5,149.5C 131.073,146.884 131.406,144.551 133.5,142.5 Z"/></g>
<g><path style="opacity:1" fill="#0a2969" d="M 177.5,142.5 C 181.24,141.68 183.573,143.013 184.5,146.5C 183.505,151.753 180.838,152.753 176.5,149.5C 175.073,146.884 175.406,144.551 177.5,142.5 Z"/></g>
</svg>
