<?xml version="1.0" encoding="UTF-8"?>
<!DOCTYPE svg PUBLIC "-//W3C//DTD SVG 1.1//EN" "http://www.w3.org/Graphics/SVG/1.1/DTD/svg11.dtd">
<svg xmlns="http://www.w3.org/2000/svg" version="1.1" width="432px" height="117px" style="shape-rendering:geometricPrecision; text-rendering:geometricPrecision; image-rendering:optimizeQuality; fill-rule:evenodd; clip-rule:evenodd" xmlns:xlink="http://www.w3.org/1999/xlink">
<g><path style="opacity:1" fill="#fdfdfd" d="M -0.5,-0.5 C 98.5,-0.5 197.5,-0.5 296.5,-0.5C 288.334,3.86549 286.501,10.1988 291,18.5C 298.453,24.4244 304.786,23.4244 310,15.5C 312.518,7.58541 310.018,2.25208 302.5,-0.5C 345.5,-0.5 388.5,-0.5 431.5,-0.5C 431.5,38.5 431.5,77.5 431.5,116.5C 366.167,116.5 300.833,116.5 235.5,116.5C 235.172,104.322 235.505,92.3217 236.5,80.5C 240.447,94.6523 249.78,100.486 264.5,98C 273.07,95.0962 278.57,89.2628 281,80.5C 284.847,65.9247 284.18,51.5914 279,37.5C 269.73,24.9753 258.23,22.4753 244.5,30C 239.927,34.3136 236.761,39.4803 235,45.5C 233.839,39.5363 233.006,33.5363 232.5,27.5C 226.833,27.5 221.167,27.5 215.5,27.5C 215.5,57.1667 215.5,86.8333 215.5,116.5C 143.5,116.5 71.5,116.5 -0.5,116.5C -0.5,77.5 -0.5,38.5 -0.5,-0.5 Z"/></g>
<g><path style="opacity:1" fill="#201616" d="M 296.5,-0.5 C 298.5,-0.5 300.5,-0.5 302.5,-0.5C 310.018,2.25208 312.518,7.58541 310,15.5C 304.786,23.4244 298.453,24.4244 291,18.5C 286.501,10.1988 288.334,3.86549 296.5,-0.5 Z"/></g>
<g><path style="opacity:1" fill="#1f1514" d="M 166.5,26.5 C 174.903,26.1301 183.236,26.6301 191.5,28C 199.757,30.9654 204.924,36.7987 207,45.5C 207.5,62.4967 207.667,79.4967 207.5,96.5C 201.833,96.5 196.167,96.5 190.5,96.5C 190.18,90.762 189.347,85.0953 188,79.5C 180.985,97.064 168.818,101.897 151.5,94C 144.953,87.5145 142.787,79.6812 145,70.5C 148.226,61.9436 154.392,57.1103 163.5,56C 171.493,55.5003 179.493,55.3336 187.5,55.5C 187.044,43.4242 181.044,39.5908 169.5,44C 167.07,46.1951 165.403,48.8618 164.5,52C 158.423,52.4877 152.423,51.9877 146.5,50.5C 147.777,37.8984 154.444,29.8984 166.5,26.5 Z"/></g>
<g><path style="opacity:1" fill="#1e1414" d="M 236.5,80.5 C 236.44,79.9569 236.107,79.6236 235.5,79.5C 234.501,91.8153 234.168,104.149 234.5,116.5C 228.167,116.5 221.833,116.5 215.5,116.5C 215.5,86.8333 215.5,57.1667 215.5,27.5C 221.167,27.5 226.833,27.5 232.5,27.5C 233.006,33.5363 233.839,39.5363 235,45.5C 236.761,39.4803 239.927,34.3136 244.5,30C 258.23,22.4753 269.73,24.9753 279,37.5C 284.18,51.5914 284.847,65.9247 281,80.5C 278.57,89.2628 273.07,95.0962 264.5,98C 249.78,100.486 240.447,94.6523 236.5,80.5 Z"/></g>
<g><path style="opacity:1" fill="#1f1515" d="M 342.5,25.5 C 354.674,24.1519 365.508,27.1519 375,34.5C 381.506,44.5233 384.006,55.5233 382.5,67.5C 366.833,67.5 351.167,67.5 335.5,67.5C 337.805,79.8 345.138,84.3 357.5,81C 361.052,78.4399 364.219,75.6066 367,72.5C 371.186,73.5883 375.353,74.755 379.5,76C 380.428,76.3879 381.095,77.0546 381.5,78C 377.48,90.6849 368.813,97.3516 355.5,98C 332.46,99.7438 319.293,89.2438 316,66.5C 313.808,45.5215 322.641,31.8548 342.5,25.5 Z"/></g>
<g><path style="opacity:1" fill="#1e1414" d="M 101.5,79.5 C 113.989,80.4954 126.656,80.8287 139.5,80.5C 139.5,85.8333 139.5,91.1667 139.5,96.5C 118.833,96.5 98.1667,96.5 77.5,96.5C 77.3338,90.4908 77.5005,84.4908 78,78.5C 90.4666,67.7017 102.633,56.5351 114.5,45C 102.505,44.5001 90.5046,44.3335 78.5,44.5C 78.5,38.8333 78.5,33.1667 78.5,27.5C 98.8333,27.5 119.167,27.5 139.5,27.5C 139.666,33.1764 139.499,38.8431 139,44.5C 126.604,56.3999 114.104,68.0665 101.5,79.5 Z"/></g>
<g><path style="opacity:1" fill="#201616" d="M 289.5,27.5 C 296.167,27.5 302.833,27.5 309.5,27.5C 309.5,50.5 309.5,73.5 309.5,96.5C 302.833,96.5 296.167,96.5 289.5,96.5C 289.5,73.5 289.5,50.5 289.5,27.5 Z"/></g>
<g><path style="opacity:1" fill="#1e1414" d="M 388.5,27.5 C 394.167,27.5 399.833,27.5 405.5,27.5C 406.254,33.864 407.254,40.1973 408.5,46.5C 410.358,33.6324 417.691,27.299 430.5,27.5C 430.5,34.1667 430.5,40.8333 430.5,47.5C 424.738,47.1493 419.072,47.6493 413.5,49C 411.383,50.7309 409.883,52.8976 409,55.5C 408.5,69.1626 408.333,82.8293 408.5,96.5C 401.833,96.5 395.167,96.5 388.5,96.5C 388.5,73.5 388.5,50.5 388.5,27.5 Z"/></g>
<g><path style="opacity:1" fill="#f8f8f8" d="M 363.5,51.5 C 359.386,52.8261 354.886,53.4927 350,53.5C 345.114,53.4927 340.614,52.8261 336.5,51.5C 338.972,45.2506 343.639,41.9172 350.5,41.5C 357.444,41.7706 361.778,45.1039 363.5,51.5 Z"/></g>
<g><path style="opacity:1" fill="#fbfbfb" d="M 244.5,43.5 C 254.898,41.3398 261.398,45.3398 264,55.5C 265.281,62.543 264.281,69.2097 261,75.5C 256.509,80.2591 251.009,81.7591 244.5,80C 240.407,77.9932 237.573,74.8266 236,70.5C 235.333,64.8333 235.333,59.1667 236,53.5C 237.687,49.0842 240.52,45.7508 244.5,43.5 Z"/></g>
<g><path style="opacity:1" fill="#b0aeae" d="M 336.5,51.5 C 340.614,52.8261 345.114,53.4927 350,53.5C 354.886,53.4927 359.386,52.8261 363.5,51.5C 364.404,52.209 364.737,53.209 364.5,54.5C 354.833,54.5 345.167,54.5 335.5,54.5C 335.263,53.209 335.596,52.209 336.5,51.5 Z"/></g>
<g><path style="opacity:1" fill="#f3f2f2" d="M 167.5,68.5 C 174.167,68.5 180.833,68.5 187.5,68.5C 186.306,79.7921 179.972,84.2921 168.5,82C 162.189,77.9603 161.855,73.4603 167.5,68.5 Z"/></g>
<g><path style="opacity:1" fill="#ff784f" d="M 0.5,80.5 C 23.3273,79.5025 46.3273,79.1692 69.5,79.5C 69.8222,85.358 69.4889,91.0247 68.5,96.5C 68.5,91.1667 68.5,85.8333 68.5,80.5C 45.8333,80.5 23.1667,80.5 0.5,80.5 Z"/></g>
<g><path style="opacity:1" fill="#635d5d" d="M 101.5,79.5 C 114.5,79.5 127.5,79.5 140.5,79.5C 140.822,85.358 140.489,91.0247 139.5,96.5C 139.5,91.1667 139.5,85.8333 139.5,80.5C 126.656,80.8287 113.989,80.4954 101.5,79.5 Z"/></g>
<g><path style="opacity:1" fill="#ff4d00" d="M 0.5,80.5 C 23.1667,80.5 45.8333,80.5 68.5,80.5C 68.5,85.8333 68.5,91.1667 68.5,96.5C 45.8333,96.5 23.1667,96.5 0.5,96.5C 0.5,91.1667 0.5,85.8333 0.5,80.5 Z"/></g>
<g><path style="opacity:1" fill="#696565" d="M 236.5,80.5 C 235.505,92.3217 235.172,104.322 235.5,116.5C 235.167,116.5 234.833,116.5 234.5,116.5C 234.168,104.149 234.501,91.8153 235.5,79.5C 236.107,79.6236 236.44,79.9569 236.5,80.5 Z"/></g>
</svg>
