<?xml version="1.0" encoding="UTF-8"?>
<!DOCTYPE svg PUBLIC "-//W3C//DTD SVG 1.1//EN" "http://www.w3.org/Graphics/SVG/1.1/DTD/svg11.dtd">
<svg xmlns="http://www.w3.org/2000/svg" version="1.1" width="148px" height="148px" style="shape-rendering:geometricPrecision; text-rendering:geometricPrecision; image-rendering:optimizeQuality; fill-rule:evenodd; clip-rule:evenodd" xmlns:xlink="http://www.w3.org/1999/xlink">
<g><path style="opacity:1" fill="#fefefe" d="M -0.5,-0.5 C 48.8333,-0.5 98.1667,-0.5 147.5,-0.5C 147.5,48.8333 147.5,98.1667 147.5,147.5C 98.1667,147.5 48.8333,147.5 -0.5,147.5C -0.5,98.1667 -0.5,48.8333 -0.5,-0.5 Z"/></g>
<g><path style="opacity:1" fill="#5c7276" d="M 77.5,34.5 C 77.5,34.1667 77.5,33.8333 77.5,33.5C 92.5037,33.3334 107.504,33.5001 122.5,34C 121.956,34.7172 121.289,35.2172 120.5,35.5C 106.343,34.5041 92.0097,34.1707 77.5,34.5 Z"/></g>
<g><path style="opacity:1" fill="#c1c8ca" d="M 77.5,33.5 C 77.5,33.8333 77.5,34.1667 77.5,34.5C 77.1699,52.6744 77.5032,70.6744 78.5,88.5C 78.44,89.0431 78.1067,89.3764 77.5,89.5C 76.1724,70.671 76.1724,52.0043 77.5,33.5 Z"/></g>
<g><path style="opacity:1" fill="#0b373e" d="M 24.5,33.5 C 39.5,33.5 54.5,33.5 69.5,33.5C 68.839,48.161 61.1724,55.8276 46.5,56.5C 33.1,54.7646 25.7667,47.098 24.5,33.5 Z"/></g>
<g><path style="opacity:1" fill="#04353c" d="M 77.5,34.5 C 92.0097,34.1707 106.343,34.5041 120.5,35.5C 106.5,53.1667 92.5,70.8333 78.5,88.5C 77.5032,70.6744 77.1699,52.6744 77.5,34.5 Z"/></g>
<g><path style="opacity:1" fill="#cbd0d2" d="M 68.5,55.5 C 68.56,54.9569 68.8933,54.6236 69.5,54.5C 70.8275,72.9956 70.8275,91.329 69.5,109.5C 69.8301,91.3256 69.4968,73.3256 68.5,55.5 Z"/></g>
<g><path style="opacity:1" fill="#04353c" d="M 68.5,55.5 C 69.4968,73.3256 69.8301,91.3256 69.5,109.5C 54.6572,109.829 39.9905,109.496 25.5,108.5C 40.1821,91.1477 54.5154,73.481 68.5,55.5 Z"/></g>
<g><path style="opacity:1" fill="#05353c" d="M 92.5,87.5 C 109.639,85.3257 119.639,92.6591 122.5,109.5C 107.5,109.5 92.5,109.5 77.5,109.5C 78.0482,99.054 83.0482,91.7206 92.5,87.5 Z"/></g>
<g><path style="opacity:1" fill="#96a3a5" d="M 25.5,108.5 C 39.9905,109.496 54.6572,109.829 69.5,109.5C 54.6614,110.826 39.6614,110.826 24.5,109.5C 24.6236,108.893 24.9569,108.56 25.5,108.5 Z"/></g>
</svg>
